# MagicaVoxel @ Ephtracy

# group
o 

# material
mtllib CrtonBCrate.mtl
usemtl palette

# normals
vn -1 0 0
vn 1 0 0
vn 0 0 1
vn 0 0 -1
vn 0 -1 0
vn 0 1 0

# texcoords
vt 0.720703 0.5
vt 0.751953 0.5
vt 0.755859 0.5
vt 0.888672 0.5

# verts
v -2 0 2
v -2 0 -2
v -2 0.1 1.9
v -2 0.1 -1.9
v -2 3.9 1.9
v -2 3.9 -1.9
v -2 4 2
v -2 4 -2
v 2 0 2
v 2 0 -2
v 2 0.1 1.9
v 2 0.1 -1.9
v 2 3.9 1.9
v 2 3.9 -1.9
v 2 4 2
v 2 4 -2
v -2 0 2
v -2 4 2
v -1.9 0.1 2
v -1.9 3.9 2
v -0.2 1.5 2
v -0.2 3.9 2
v -0.2 4 2
v -0.0999999 1.5 2
v -0.0999999 1.6 2
v 0.1 1.6 2
v 0.1 1.7 2
v 0.2 1.7 2
v 0.2 3.9 2
v 0.2 4 2
v 0.8 2.9 2
v 0.8 3 2
v 0.9 2.8 2
v 0.9 2.9 2
v 0.9 3 2
v 0.9 3.1 2
v 1 2.7 2
v 1 2.8 2
v 1 3.1 2
v 1 3.2 2
v 1.1 2.6 2
v 1.1 2.7 2
v 1.1 2.9 2
v 1.1 3 2
v 1.2 2.5 2
v 1.2 2.6 2
v 1.2 2.7 2
v 1.2 2.8 2
v 1.2 2.9 2
v 1.2 3 2
v 1.2 3.1 2
v 1.2 3.2 2
v 1.3 2.5 2
v 1.3 2.6 2
v 1.3 2.7 2
v 1.3 2.8 2
v 1.3 3 2
v 1.3 3.1 2
v 1.4 2.7 2
v 1.4 2.8 2
v 1.4 2.9 2
v 1.4 3 2
v 1.5 2.6 2
v 1.5 2.7 2
v 1.5 2.8 2
v 1.5 2.9 2
v 1.6 2.7 2
v 1.6 2.8 2
v 1.9 0.1 2
v 1.9 3.9 2
v 2 0 2
v 2 4 2
v -2 0 -2
v -2 4 -2
v -1.9 0.1 -2
v -1.9 3.9 -2
v -0.2 1.5 -2
v -0.2 3.9 -2
v -0.2 4 -2
v -0.0999999 1.5 -2
v -0.0999999 1.6 -2
v 2.38419e-07 1.6 -2
v 2.38419e-07 1.7 -2
v 0.2 1.7 -2
v 0.2 3.9 -2
v 0.2 4 -2
v 1.9 0.1 -2
v 1.9 3.9 -2
v 2 0 -2
v 2 4 -2
v -2 0 2
v 2 0 2
v -1.9 0 1.9
v 1.9 0 1.9
v -1.9 0 -1.9
v 1.9 0 -1.9
v -2 0 -2
v 2 0 -2
v -2 4 2
v -0.2 4 2
v 0.2 4 2
v 2 4 2
v -1.9 4 1.9
v -0.2 4 1.9
v 0.2 4 1.9
v 1.9 4 1.9
v -1.9 4 -1.9
v -0.2 4 -1.9
v 0.2 4 -1.9
v 1.9 4 -1.9
v -2 4 -2
v -0.2 4 -2
v 0.2 4 -2
v 2 4 -2

# faces
f 3/1/1 2/1/1 1/1/1
f 4/1/1 2/1/1 3/1/1
f 5/1/1 3/1/1 1/1/1
f 5/2/1 4/2/1 3/2/1
f 6/1/1 2/1/1 4/1/1
f 6/2/1 4/2/1 5/2/1
f 7/1/1 5/1/1 1/1/1
f 7/1/1 6/1/1 5/1/1
f 8/1/1 2/1/1 6/1/1
f 8/1/1 6/1/1 7/1/1
f 9/1/2 10/1/2 11/1/2
f 11/1/2 10/1/2 12/1/2
f 9/1/2 11/1/2 13/1/2
f 11/2/2 12/2/2 13/2/2
f 12/1/2 10/1/2 14/1/2
f 13/2/2 12/2/2 14/2/2
f 9/1/2 13/1/2 15/1/2
f 13/1/2 14/1/2 15/1/2
f 14/1/2 10/1/2 16/1/2
f 15/1/2 14/1/2 16/1/2
f 19/1/3 18/1/3 17/1/3
f 20/1/3 18/1/3 19/1/3
f 21/2/3 20/2/3 19/2/3
f 22/1/3 18/1/3 20/1/3
f 22/2/3 20/2/3 21/2/3
f 23/1/3 18/1/3 22/1/3
f 24/2/3 21/2/3 19/2/3
f 24/3/3 22/3/3 21/3/3
f 24/3/3 23/3/3 22/3/3
f 25/3/3 23/3/3 24/3/3
f 26/2/3 25/2/3 24/2/3
f 26/3/3 23/3/3 25/3/3
f 27/3/3 23/3/3 26/3/3
f 28/2/3 27/2/3 26/2/3
f 28/3/3 23/3/3 27/3/3
f 29/3/3 23/3/3 28/3/3
f 30/3/3 23/3/3 29/3/3
f 31/2/3 29/2/3 28/2/3
f 32/2/3 29/2/3 31/2/3
f 33/2/3 31/2/3 28/2/3
f 34/3/3 32/3/3 31/3/3
f 34/2/3 31/2/3 33/2/3
f 35/2/3 29/2/3 32/2/3
f 35/3/3 32/3/3 34/3/3
f 36/2/3 29/2/3 35/2/3
f 37/2/3 33/2/3 28/2/3
f 38/3/3 34/3/3 33/3/3
f 38/2/3 33/2/3 37/2/3
f 38/3/3 35/3/3 34/3/3
f 38/3/3 36/3/3 35/3/3
f 39/2/3 29/2/3 36/2/3
f 39/3/3 36/3/3 38/3/3
f 40/2/3 29/2/3 39/2/3
f 41/2/3 37/2/3 28/2/3
f 42/3/3 38/3/3 37/3/3
f 42/2/3 37/2/3 41/2/3
f 42/3/3 39/3/3 38/3/3
f 42/3/3 40/3/3 39/3/3
f 43/3/3 40/3/3 42/3/3
f 44/3/3 40/3/3 43/3/3
f 45/2/3 41/2/3 28/2/3
f 46/3/3 42/3/3 41/3/3
f 46/2/3 41/2/3 45/2/3
f 46/3/3 43/3/3 42/3/3
f 47/3/3 43/3/3 46/3/3
f 48/3/3 43/3/3 47/3/3
f 49/4/3 44/4/3 43/4/3
f 49/3/3 43/3/3 48/3/3
f 50/3/3 40/3/3 44/3/3
f 50/4/3 44/4/3 49/4/3
f 51/3/3 40/3/3 50/3/3
f 52/2/3 29/2/3 40/2/3
f 52/3/3 40/3/3 51/3/3
f 53/2/3 45/2/3 28/2/3
f 53/3/3 46/3/3 45/3/3
f 53/3/3 47/3/3 46/3/3
f 54/3/3 47/3/3 53/3/3
f 55/4/3 48/4/3 47/4/3
f 55/3/3 47/3/3 54/3/3
f 56/3/3 51/3/3 50/3/3
f 56/4/3 48/4/3 55/4/3
f 56/3/3 49/3/3 48/3/3
f 56/3/3 50/3/3 49/3/3
f 57/3/3 51/3/3 56/3/3
f 58/2/3 52/2/3 51/2/3
f 58/3/3 51/3/3 57/3/3
f 59/3/3 55/3/3 54/3/3
f 59/3/3 57/3/3 56/3/3
f 59/3/3 56/3/3 55/3/3
f 60/3/3 57/3/3 59/3/3
f 61/3/3 57/3/3 60/3/3
f 62/2/3 58/2/3 57/2/3
f 62/3/3 57/3/3 61/3/3
f 63/2/3 54/2/3 53/2/3
f 63/3/3 59/3/3 54/3/3
f 64/4/3 60/4/3 59/4/3
f 64/3/3 59/3/3 63/3/3
f 65/3/3 61/3/3 60/3/3
f 65/4/3 60/4/3 64/4/3
f 66/2/3 62/2/3 61/2/3
f 66/3/3 61/3/3 65/3/3
f 67/2/3 64/2/3 63/2/3
f 67/3/3 65/3/3 64/3/3
f 68/2/3 66/2/3 65/2/3
f 68/3/3 65/3/3 67/3/3
f 69/1/3 19/1/3 17/1/3
f 69/2/3 24/2/3 19/2/3
f 69/2/3 68/2/3 67/2/3
f 69/2/3 63/2/3 53/2/3
f 69/2/3 67/2/3 63/2/3
f 69/2/3 26/2/3 24/2/3
f 69/2/3 28/2/3 26/2/3
f 69/2/3 53/2/3 28/2/3
f 70/2/3 66/2/3 68/2/3
f 70/2/3 68/2/3 69/2/3
f 70/2/3 62/2/3 66/2/3
f 70/2/3 52/2/3 58/2/3
f 70/1/3 30/1/3 29/1/3
f 70/2/3 58/2/3 62/2/3
f 70/2/3 29/2/3 52/2/3
f 71/1/3 69/1/3 17/1/3
f 71/1/3 70/1/3 69/1/3
f 72/1/3 30/1/3 70/1/3
f 72/1/3 70/1/3 71/1/3
f 73/1/4 74/1/4 75/1/4
f 75/1/4 74/1/4 76/1/4
f 75/2/4 76/2/4 77/2/4
f 76/1/4 74/1/4 78/1/4
f 77/2/4 76/2/4 78/2/4
f 78/1/4 74/1/4 79/1/4
f 75/2/4 77/2/4 80/2/4
f 77/3/4 78/3/4 80/3/4
f 78/3/4 79/3/4 80/3/4
f 80/3/4 79/3/4 81/3/4
f 80/2/4 81/2/4 82/2/4
f 81/3/4 79/3/4 82/3/4
f 82/3/4 79/3/4 83/3/4
f 82/2/4 83/2/4 84/2/4
f 83/3/4 79/3/4 84/3/4
f 84/3/4 79/3/4 85/3/4
f 85/3/4 79/3/4 86/3/4
f 73/1/4 75/1/4 87/1/4
f 75/2/4 80/2/4 87/2/4
f 80/2/4 82/2/4 87/2/4
f 84/2/4 85/2/4 87/2/4
f 82/2/4 84/2/4 87/2/4
f 85/1/4 86/1/4 88/1/4
f 87/2/4 85/2/4 88/2/4
f 73/1/4 87/1/4 89/1/4
f 87/1/4 88/1/4 89/1/4
f 88/1/4 86/1/4 90/1/4
f 89/1/4 88/1/4 90/1/4
f 93/1/5 92/1/5 91/1/5
f 94/1/5 92/1/5 93/1/5
f 95/1/5 93/1/5 91/1/5
f 95/2/5 94/2/5 93/2/5
f 96/1/5 92/1/5 94/1/5
f 96/2/5 94/2/5 95/2/5
f 97/1/5 95/1/5 91/1/5
f 97/1/5 96/1/5 95/1/5
f 98/1/5 92/1/5 96/1/5
f 98/1/5 96/1/5 97/1/5
f 99/1/6 100/1/6 103/1/6
f 100/3/6 101/3/6 104/3/6
f 103/1/6 100/1/6 104/1/6
f 101/1/6 102/1/6 105/1/6
f 104/3/6 101/3/6 105/3/6
f 105/1/6 102/1/6 106/1/6
f 103/2/6 104/2/6 107/2/6
f 99/1/6 103/1/6 107/1/6
f 104/3/6 105/3/6 108/3/6
f 107/2/6 104/2/6 108/2/6
f 105/2/6 106/2/6 109/2/6
f 108/3/6 105/3/6 109/3/6
f 106/1/6 102/1/6 110/1/6
f 109/2/6 106/2/6 110/2/6
f 107/1/6 108/1/6 111/1/6
f 99/1/6 107/1/6 111/1/6
f 108/3/6 109/3/6 112/3/6
f 111/1/6 108/1/6 112/1/6
f 109/1/6 110/1/6 113/1/6
f 112/3/6 109/3/6 113/3/6
f 110/1/6 102/1/6 114/1/6
f 113/1/6 110/1/6 114/1/6
