# MagicaVoxel @ Ephtracy

# group
o 

# material
mtllib ElectroShit2.mtl
usemtl palette

# normals
vn -1 0 0
vn 1 0 0
vn 0 0 1
vn 0 0 -1
vn 0 -1 0
vn 0 1 0

# texcoords
vt 0.759766 0.5
vt 0.884766 0.5
vt 0.888672 0.5
vt 0.892578 0.5
vt 0.900391 0.5
vt 0.904297 0.5

# verts
v -1.6 0 -0.5
v -1.6 0 -0.6
v -1.6 0 -1.6
v -1.6 3.2 -0.5
v -1.6 3.2 -0.6
v -1.6 3.2 -1.6
v 1.1 1.4 -0.5
v 1.1 1.4 -0.6
v 1.1 1.9 -0.5
v 1.1 1.9 -0.6
v 1.5 0.1 -0.5
v 1.5 0.1 -0.6
v 1.5 3.1 -0.5
v 1.5 3.1 -0.6
v -1.5 0.1 -0.5
v -1.5 0.1 -0.6
v -1.5 3.1 -0.5
v -1.5 3.1 -0.6
v 1.2 1.4 -0.5
v 1.2 1.4 -0.6
v 1.2 1.9 -0.5
v 1.2 1.9 -0.6
v 1.6 0 -0.5
v 1.6 0 -0.6
v 1.6 0 -1.6
v 1.6 3.2 -0.5
v 1.6 3.2 -0.6
v 1.6 3.2 -1.6
v -1.6 0 -0.5
v -1.6 3.2 -0.5
v -1.5 0.1 -0.5
v -1.5 3.1 -0.5
v 1.1 1.4 -0.5
v 1.1 1.9 -0.5
v 1.2 1.4 -0.5
v 1.2 1.9 -0.5
v 1.5 0.1 -0.5
v 1.5 3.1 -0.5
v 1.6 0 -0.5
v 1.6 3.2 -0.5
v -1.5 0.1 -0.6
v -1.5 3.1 -0.6
v -1.2 0.7 -0.6
v -1.2 0.9 -0.6
v -1.1 0.8 -0.6
v -1.1 0.9 -0.6
v -1.1 1.1 -0.6
v -1 0.9 -0.6
v -1 1.1 -0.6
v -1 1.3 -0.6
v -0.9 1.1 -0.6
v -0.9 1.3 -0.6
v -0.9 1.4 -0.6
v -0.8 1.3 -0.6
v -0.8 1.4 -0.6
v -0.8 1.6 -0.6
v -0.7 1.4 -0.6
v -0.7 1.6 -0.6
v -0.7 1.8 -0.6
v -0.6 1.6 -0.6
v -0.6 1.8 -0.6
v -0.6 1.9 -0.6
v -0.5 1.8 -0.6
v -0.5 1.9 -0.6
v -0.5 2.1 -0.6
v -0.4 1.4 -0.6
v -0.4 1.7 -0.6
v -0.4 1.9 -0.6
v -0.4 2.1 -0.6
v -0.4 2.2 -0.6
v -0.3 1.3 -0.6
v -0.3 1.4 -0.6
v -0.3 1.7 -0.6
v -0.3 1.8 -0.6
v -0.3 2.1 -0.6
v -0.3 2.2 -0.6
v -0.3 2.4 -0.6
v -0.2 0.9 -0.6
v -0.2 1.2 -0.6
v -0.2 1.7 -0.6
v -0.2 1.8 -0.6
v -0.2 2 -0.6
v -0.2 2.2 -0.6
v -0.2 2.4 -0.6
v -0.2 2.6 -0.6
v -0.1 0.8 -0.6
v -0.1 0.9 -0.6
v -0.1 1.2 -0.6
v -0.1 1.3 -0.6
v -0.1 1.8 -0.6
v -0.1 2 -0.6
v -0.1 2.1 -0.6
v -0.1 2.4 -0.6
v -0.1 2.6 -0.6
v -0.1 2.7 -0.6
v 0 0.8 -0.6
v 0 0.9 -0.6
v 0 1 -0.6
v 0 1.2 -0.6
v 0 1.4 -0.6
v 0 1.6 -0.6
v 0 1.8 -0.6
v 0 2 -0.6
v 0 2.1 -0.6
v 0 2.2 -0.6
v 0.1 0.9 -0.6
v 0.1 1 -0.6
v 0.1 1.1 -0.6
v 0.1 1.7 -0.6
v 0.1 1.8 -0.6
v 0.1 2.1 -0.6
v 0.1 2.2 -0.6
v 0.1 2.4 -0.6
v 0.1 2.6 -0.6
v 0.1 2.7 -0.6
v 0.2 1 -0.6
v 0.2 1.1 -0.6
v 0.2 1.3 -0.6
v 0.2 1.8 -0.6
v 0.2 2.1 -0.6
v 0.2 2.2 -0.6
v 0.2 2.4 -0.6
v 0.2 2.6 -0.6
v 0.3 1.1 -0.6
v 0.3 1.3 -0.6
v 0.3 1.6 -0.6
v 0.3 1.7 -0.6
v 0.3 2.1 -0.6
v 0.3 2.2 -0.6
v 0.3 2.4 -0.6
v 0.4 1.3 -0.6
v 0.4 1.6 -0.6
v 0.4 1.9 -0.6
v 0.4 2.1 -0.6
v 0.4 2.2 -0.6
v 0.5 1.8 -0.6
v 0.5 1.9 -0.6
v 0.5 2.1 -0.6
v 0.6 1.6 -0.6
v 0.6 1.8 -0.6
v 0.6 1.9 -0.6
v 0.7 1.4 -0.6
v 0.7 1.6 -0.6
v 0.7 1.8 -0.6
v 0.8 1.3 -0.6
v 0.8 1.4 -0.6
v 0.8 1.6 -0.6
v 0.9 1.1 -0.6
v 0.9 1.3 -0.6
v 0.9 1.4 -0.6
v 1 0.9 -0.6
v 1 1.1 -0.6
v 1 1.3 -0.6
v 1.1 0.8 -0.6
v 1.1 0.9 -0.6
v 1.1 1.1 -0.6
v 1.1 1.4 -0.6
v 1.1 1.9 -0.6
v 1.2 0.7 -0.6
v 1.2 0.9 -0.6
v 1.2 1.4 -0.6
v 1.2 1.9 -0.6
v 1.5 0.1 -0.6
v 1.5 3.1 -0.6
v -1.6 0 -1.6
v -1.6 3.2 -1.6
v 1.6 0 -1.6
v 1.6 3.2 -1.6
v -1.6 0 -0.5
v 1.6 0 -0.5
v -1.6 0 -0.6
v 1.6 0 -0.6
v -1.6 0 -1.6
v 1.6 0 -1.6
v 1.1 1.4 -0.5
v 1.2 1.4 -0.5
v 1.1 1.4 -0.6
v 1.2 1.4 -0.6
v -1.5 3.1 -0.5
v 1.5 3.1 -0.5
v -1.5 3.1 -0.6
v 1.5 3.1 -0.6
v -1.5 0.1 -0.5
v 1.5 0.1 -0.5
v -1.5 0.1 -0.6
v 1.5 0.1 -0.6
v 1.1 1.9 -0.5
v 1.2 1.9 -0.5
v 1.1 1.9 -0.6
v 1.2 1.9 -0.6
v -1.6 3.2 -0.5
v 1.6 3.2 -0.5
v -1.6 3.2 -0.6
v 1.6 3.2 -0.6
v -1.6 3.2 -1.6
v 1.6 3.2 -1.6

# faces
f 4/4/1 2/4/1 1/4/1
f 5/2/1 3/2/1 2/2/1
f 5/4/1 2/4/1 4/4/1
f 6/2/1 3/2/1 5/2/1
f 9/4/1 8/4/1 7/4/1
f 10/4/1 8/4/1 9/4/1
f 13/4/1 12/4/1 11/4/1
f 14/4/1 12/4/1 13/4/1
f 15/4/2 16/4/2 17/4/2
f 17/4/2 16/4/2 18/4/2
f 19/4/2 20/4/2 21/4/2
f 21/4/2 20/4/2 22/4/2
f 23/4/2 24/4/2 26/4/2
f 24/2/2 25/2/2 27/2/2
f 26/4/2 24/4/2 27/4/2
f 27/2/2 25/2/2 28/2/2
f 31/4/3 30/4/3 29/4/3
f 32/4/3 30/4/3 31/4/3
f 35/4/3 34/4/3 33/4/3
f 36/4/3 34/4/3 35/4/3
f 37/4/3 31/4/3 29/4/3
f 38/4/3 30/4/3 32/4/3
f 39/4/3 37/4/3 29/4/3
f 39/4/3 38/4/3 37/4/3
f 40/4/3 30/4/3 38/4/3
f 40/4/3 38/4/3 39/4/3
f 43/2/3 42/2/3 41/2/3
f 44/2/3 42/2/3 43/2/3
f 45/3/3 44/3/3 43/3/3
f 46/2/3 42/2/3 44/2/3
f 46/3/3 44/3/3 45/3/3
f 47/2/3 42/2/3 46/2/3
f 48/5/3 46/5/3 45/5/3
f 48/3/3 47/3/3 46/3/3
f 49/2/3 42/2/3 47/2/3
f 49/3/3 47/3/3 48/3/3
f 50/2/3 42/2/3 49/2/3
f 51/5/3 49/5/3 48/5/3
f 51/3/3 50/3/3 49/3/3
f 52/2/3 42/2/3 50/2/3
f 52/3/3 50/3/3 51/3/3
f 53/2/3 42/2/3 52/2/3
f 54/5/3 52/5/3 51/5/3
f 54/3/3 53/3/3 52/3/3
f 55/2/3 42/2/3 53/2/3
f 55/3/3 53/3/3 54/3/3
f 56/2/3 42/2/3 55/2/3
f 57/5/3 55/5/3 54/5/3
f 57/3/3 56/3/3 55/3/3
f 58/2/3 42/2/3 56/2/3
f 58/3/3 56/3/3 57/3/3
f 59/2/3 42/2/3 58/2/3
f 60/5/3 58/5/3 57/5/3
f 60/3/3 59/3/3 58/3/3
f 61/2/3 42/2/3 59/2/3
f 61/3/3 59/3/3 60/3/3
f 62/2/3 42/2/3 61/2/3
f 63/5/3 61/5/3 60/5/3
f 63/3/3 62/3/3 61/3/3
f 64/2/3 42/2/3 62/2/3
f 64/3/3 62/3/3 63/3/3
f 65/2/3 42/2/3 64/2/3
f 66/5/3 57/5/3 54/5/3
f 66/5/3 60/5/3 57/5/3
f 66/5/3 63/5/3 60/5/3
f 66/5/3 64/5/3 63/5/3
f 67/5/3 64/5/3 66/5/3
f 68/3/3 65/3/3 64/3/3
f 68/5/3 64/5/3 67/5/3
f 69/2/3 42/2/3 65/2/3
f 69/3/3 65/3/3 68/3/3
f 70/2/3 42/2/3 69/2/3
f 71/5/3 54/5/3 51/5/3
f 71/5/3 66/5/3 54/5/3
f 72/1/3 67/1/3 66/1/3
f 72/5/3 66/5/3 71/5/3
f 73/5/3 68/5/3 67/5/3
f 73/1/3 67/1/3 72/1/3
f 73/5/3 69/5/3 68/5/3
f 74/5/3 69/5/3 73/5/3
f 75/3/3 70/3/3 69/3/3
f 75/5/3 69/5/3 74/5/3
f 76/2/3 42/2/3 70/2/3
f 76/3/3 70/3/3 75/3/3
f 77/2/3 42/2/3 76/2/3
f 78/5/3 48/5/3 45/5/3
f 78/5/3 51/5/3 48/5/3
f 78/5/3 71/5/3 51/5/3
f 79/5/3 71/5/3 78/5/3
f 80/1/3 74/1/3 73/1/3
f 80/6/3 73/6/3 72/6/3
f 81/5/3 75/5/3 74/5/3
f 81/1/3 74/1/3 80/1/3
f 81/5/3 76/5/3 75/5/3
f 82/5/3 76/5/3 81/5/3
f 83/3/3 77/3/3 76/3/3
f 83/5/3 76/5/3 82/5/3
f 84/2/3 42/2/3 77/2/3
f 84/3/3 77/3/3 83/3/3
f 85/2/3 42/2/3 84/2/3
f 86/3/3 45/3/3 43/3/3
f 86/5/3 78/5/3 45/5/3
f 87/1/3 79/1/3 78/1/3
f 87/5/3 78/5/3 86/5/3
f 88/5/3 71/5/3 79/5/3
f 88/1/3 79/1/3 87/1/3
f 89/1/3 72/1/3 71/1/3
f 89/5/3 71/5/3 88/5/3
f 90/1/3 82/1/3 81/1/3
f 90/6/3 81/6/3 80/6/3
f 91/5/3 83/5/3 82/5/3
f 91/1/3 82/1/3 90/1/3
f 91/5/3 84/5/3 83/5/3
f 92/5/3 84/5/3 91/5/3
f 93/3/3 85/3/3 84/3/3
f 93/5/3 84/5/3 92/5/3
f 94/2/3 42/2/3 85/2/3
f 94/3/3 85/3/3 93/3/3
f 95/2/3 42/2/3 94/2/3
f 96/1/3 87/1/3 86/1/3
f 96/3/3 86/3/3 43/3/3
f 97/6/3 88/6/3 87/6/3
f 97/1/3 87/1/3 96/1/3
f 98/6/3 88/6/3 97/6/3
f 99/1/3 89/1/3 88/1/3
f 99/6/3 88/6/3 98/6/3
f 100/6/3 90/6/3 80/6/3
f 100/1/3 89/1/3 99/1/3
f 100/1/3 72/1/3 89/1/3
f 100/6/3 80/6/3 72/6/3
f 100/6/3 91/6/3 90/6/3
f 101/6/3 91/6/3 100/6/3
f 102/6/3 91/6/3 101/6/3
f 103/1/3 92/1/3 91/1/3
f 103/6/3 91/6/3 102/6/3
f 104/5/3 93/5/3 92/5/3
f 104/1/3 92/1/3 103/1/3
f 104/5/3 94/5/3 93/5/3
f 105/5/3 94/5/3 104/5/3
f 106/5/3 97/5/3 96/5/3
f 106/1/3 98/1/3 97/1/3
f 107/6/3 99/6/3 98/6/3
f 107/1/3 98/1/3 106/1/3
f 107/6/3 101/6/3 100/6/3
f 107/6/3 100/6/3 99/6/3
f 108/6/3 101/6/3 107/6/3
f 109/1/3 102/1/3 101/1/3
f 110/6/3 103/6/3 102/6/3
f 110/1/3 102/1/3 109/1/3
f 110/6/3 104/6/3 103/6/3
f 111/1/3 105/1/3 104/1/3
f 111/6/3 104/6/3 110/6/3
f 112/5/3 94/5/3 105/5/3
f 112/1/3 105/1/3 111/1/3
f 113/5/3 94/5/3 112/5/3
f 114/3/3 95/3/3 94/3/3
f 114/5/3 94/5/3 113/5/3
f 115/2/3 42/2/3 95/2/3
f 115/3/3 95/3/3 114/3/3
f 116/1/3 108/1/3 107/1/3
f 116/5/3 107/5/3 106/5/3
f 117/6/3 101/6/3 108/6/3
f 117/1/3 108/1/3 116/1/3
f 118/6/3 101/6/3 117/6/3
f 119/1/3 111/1/3 110/1/3
f 119/5/3 110/5/3 109/5/3
f 120/5/3 113/5/3 112/5/3
f 120/1/3 111/1/3 119/1/3
f 120/5/3 112/5/3 111/5/3
f 121/5/3 113/5/3 120/5/3
f 122/3/3 114/3/3 113/3/3
f 122/5/3 113/5/3 121/5/3
f 123/2/3 115/2/3 114/2/3
f 123/3/3 114/3/3 122/3/3
f 124/1/3 118/1/3 117/1/3
f 124/5/3 117/5/3 116/5/3
f 125/6/3 101/6/3 118/6/3
f 125/1/3 118/1/3 124/1/3
f 126/1/3 109/1/3 101/1/3
f 126/6/3 101/6/3 125/6/3
f 127/5/3 121/5/3 120/5/3
f 127/1/3 109/1/3 126/1/3
f 127/5/3 119/5/3 109/5/3
f 127/5/3 120/5/3 119/5/3
f 128/5/3 121/5/3 127/5/3
f 129/3/3 122/3/3 121/3/3
f 129/5/3 121/5/3 128/5/3
f 130/2/3 123/2/3 122/2/3
f 130/3/3 122/3/3 129/3/3
f 131/5/3 125/5/3 124/5/3
f 131/1/3 126/1/3 125/1/3
f 132/5/3 128/5/3 127/5/3
f 132/1/3 126/1/3 131/1/3
f 132/5/3 127/5/3 126/5/3
f 133/5/3 128/5/3 132/5/3
f 134/3/3 129/3/3 128/3/3
f 134/5/3 128/5/3 133/5/3
f 135/2/3 130/2/3 129/2/3
f 135/3/3 129/3/3 134/3/3
f 136/5/3 133/5/3 132/5/3
f 136/5/3 132/5/3 131/5/3
f 137/3/3 134/3/3 133/3/3
f 137/5/3 133/5/3 136/5/3
f 138/2/3 135/2/3 134/2/3
f 138/3/3 134/3/3 137/3/3
f 139/5/3 136/5/3 131/5/3
f 140/3/3 137/3/3 136/3/3
f 140/5/3 136/5/3 139/5/3
f 141/2/3 138/2/3 137/2/3
f 141/3/3 137/3/3 140/3/3
f 142/5/3 139/5/3 131/5/3
f 143/3/3 140/3/3 139/3/3
f 143/5/3 139/5/3 142/5/3
f 144/2/3 141/2/3 140/2/3
f 144/3/3 140/3/3 143/3/3
f 145/5/3 131/5/3 124/5/3
f 145/5/3 142/5/3 131/5/3
f 146/3/3 143/3/3 142/3/3
f 146/5/3 142/5/3 145/5/3
f 147/2/3 144/2/3 143/2/3
f 147/3/3 143/3/3 146/3/3
f 148/5/3 124/5/3 116/5/3
f 148/5/3 145/5/3 124/5/3
f 149/3/3 146/3/3 145/3/3
f 149/5/3 145/5/3 148/5/3
f 150/2/3 147/2/3 146/2/3
f 150/3/3 146/3/3 149/3/3
f 151/5/3 106/5/3 96/5/3
f 151/5/3 116/5/3 106/5/3
f 151/5/3 148/5/3 116/5/3
f 152/3/3 149/3/3 148/3/3
f 152/5/3 148/5/3 151/5/3
f 153/2/3 150/2/3 149/2/3
f 153/3/3 149/3/3 152/3/3
f 154/3/3 96/3/3 43/3/3
f 154/5/3 151/5/3 96/5/3
f 155/3/3 152/3/3 151/3/3
f 155/5/3 151/5/3 154/5/3
f 156/2/3 153/2/3 152/2/3
f 156/3/3 152/3/3 155/3/3
f 157/2/3 147/2/3 150/2/3
f 157/2/3 153/2/3 156/2/3
f 157/2/3 150/2/3 153/2/3
f 158/2/3 144/2/3 147/2/3
f 158/2/3 147/2/3 157/2/3
f 158/2/3 141/2/3 144/2/3
f 158/2/3 138/2/3 141/2/3
f 159/2/3 43/2/3 41/2/3
f 159/3/3 155/3/3 154/3/3
f 159/3/3 154/3/3 43/3/3
f 160/2/3 156/2/3 155/2/3
f 160/3/3 155/3/3 159/3/3
f 160/2/3 157/2/3 156/2/3
f 161/2/3 157/2/3 160/2/3
f 162/2/3 138/2/3 158/2/3
f 163/2/3 161/2/3 160/2/3
f 163/2/3 162/2/3 161/2/3
f 163/2/3 159/2/3 41/2/3
f 163/2/3 160/2/3 159/2/3
f 164/2/3 138/2/3 162/2/3
f 164/2/3 162/2/3 163/2/3
f 164/2/3 123/2/3 130/2/3
f 164/2/3 130/2/3 135/2/3
f 164/2/3 115/2/3 123/2/3
f 164/2/3 42/2/3 115/2/3
f 164/2/3 135/2/3 138/2/3
f 165/2/4 166/2/4 167/2/4
f 167/2/4 166/2/4 168/2/4
f 171/4/5 170/4/5 169/4/5
f 172/4/5 170/4/5 171/4/5
f 173/2/5 172/2/5 171/2/5
f 174/2/5 172/2/5 173/2/5
f 177/4/5 176/4/5 175/4/5
f 178/4/5 176/4/5 177/4/5
f 181/4/5 180/4/5 179/4/5
f 182/4/5 180/4/5 181/4/5
f 183/4/6 184/4/6 185/4/6
f 185/4/6 184/4/6 186/4/6
f 187/4/6 188/4/6 189/4/6
f 189/4/6 188/4/6 190/4/6
f 191/4/6 192/4/6 193/4/6
f 193/4/6 192/4/6 194/4/6
f 193/2/6 194/2/6 195/2/6
f 195/2/6 194/2/6 196/2/6
