# MagicaVoxel @ Ephtracy

# group
o 

# material
mtllib FireExit.mtl
usemtl palette

# normals
vn -1 0 0
vn 1 0 0
vn 0 0 1
vn 0 0 -1
vn 0 -1 0
vn 0 1 0

# texcoords
vt 0.755859 0.5
vt 0.798828 0.5

# verts
v -0.8 0 0.1
v -0.8 0 -0.8
v -0.8 0.7 0.1
v -0.8 0.7 -0.8
v 0.8 0 0.1
v 0.8 0 -0.8
v 0.8 0.7 0.1
v 0.8 0.7 -0.8
v -0.8 0 0.1
v -0.8 0.7 0.1
v -0.7 0.1 0.1
v -0.7 0.6 0.1
v -0.6 0.2 0.1
v -0.6 0.5 0.1
v -0.4 0.2 0.1
v -0.4 0.5 0.1
v -0.3 0.3 0.1
v -0.3 0.4 0.1
v -0.2 0.2 0.1
v -0.2 0.3 0.1
v -0.2 0.4 0.1
v -0.2 0.5 0.1
v -0.1 0.2 0.1
v -0.1 0.3 0.1
v -0.1 0.4 0.1
v -0.1 0.5 0.1
v 0.2 0.3 0.1
v 0.2 0.4 0.1
v 0.3 0.2 0.1
v 0.3 0.3 0.1
v 0.3 0.4 0.1
v 0.3 0.5 0.1
v 0.4 0.2 0.1
v 0.4 0.3 0.1
v 0.4 0.4 0.1
v 0.5 0.2 0.1
v 0.5 0.3 0.1
v 0.5 0.4 0.1
v 0.6 0.2 0.1
v 0.6 0.3 0.1
v 0.6 0.4 0.1
v 0.6 0.5 0.1
v 0.7 0.1 0.1
v 0.7 0.6 0.1
v 0.8 0 0.1
v 0.8 0.7 0.1
v -0.8 0 -0.8
v -0.8 0.7 -0.8
v 0.8 0 -0.8
v 0.8 0.7 -0.8
v -0.8 0 0.1
v 0.8 0 0.1
v -0.8 0 -0.8
v 0.8 0 -0.8
v -0.8 0.7 0.1
v 0.8 0.7 0.1
v -0.8 0.7 -0.8
v 0.8 0.7 -0.8

# faces
f 3/1/1 2/1/1 1/1/1
f 4/1/1 2/1/1 3/1/1
f 5/1/2 6/1/2 7/1/2
f 7/1/2 6/1/2 8/1/2
f 11/1/3 10/1/3 9/1/3
f 12/1/3 10/1/3 11/1/3
f 13/2/3 12/2/3 11/2/3
f 14/2/3 12/2/3 13/2/3
f 15/2/3 13/2/3 11/2/3
f 15/1/3 14/1/3 13/1/3
f 16/2/3 12/2/3 14/2/3
f 16/1/3 14/1/3 15/1/3
f 17/2/3 16/2/3 15/2/3
f 18/2/3 16/2/3 17/2/3
f 19/2/3 15/2/3 11/2/3
f 19/2/3 17/2/3 15/2/3
f 20/1/3 18/1/3 17/1/3
f 20/2/3 17/2/3 19/2/3
f 21/2/3 16/2/3 18/2/3
f 21/1/3 18/1/3 20/1/3
f 22/2/3 12/2/3 16/2/3
f 22/2/3 16/2/3 21/2/3
f 23/1/3 20/1/3 19/1/3
f 23/1/3 21/1/3 20/1/3
f 23/1/3 22/1/3 21/1/3
f 23/2/3 19/2/3 11/2/3
f 24/1/3 22/1/3 23/1/3
f 25/1/3 22/1/3 24/1/3
f 26/2/3 12/2/3 22/2/3
f 26/1/3 22/1/3 25/1/3
f 27/1/3 25/1/3 24/1/3
f 27/2/3 24/2/3 23/2/3
f 28/2/3 26/2/3 25/2/3
f 28/1/3 25/1/3 27/1/3
f 29/2/3 23/2/3 11/2/3
f 29/2/3 27/2/3 23/2/3
f 29/2/3 28/2/3 27/2/3
f 30/2/3 28/2/3 29/2/3
f 31/2/3 26/2/3 28/2/3
f 31/2/3 28/2/3 30/2/3
f 32/2/3 12/2/3 26/2/3
f 32/2/3 26/2/3 31/2/3
f 33/1/3 30/1/3 29/1/3
f 33/2/3 29/2/3 11/2/3
f 34/2/3 31/2/3 30/2/3
f 34/1/3 30/1/3 33/1/3
f 35/1/3 32/1/3 31/1/3
f 35/2/3 31/2/3 34/2/3
f 36/2/3 33/2/3 11/2/3
f 36/2/3 34/2/3 33/2/3
f 37/1/3 35/1/3 34/1/3
f 37/2/3 34/2/3 36/2/3
f 38/1/3 32/1/3 35/1/3
f 38/1/3 35/1/3 37/1/3
f 39/1/3 37/1/3 36/1/3
f 39/2/3 36/2/3 11/2/3
f 40/2/3 38/2/3 37/2/3
f 40/1/3 37/1/3 39/1/3
f 41/1/3 32/1/3 38/1/3
f 41/2/3 38/2/3 40/2/3
f 42/2/3 12/2/3 32/2/3
f 42/1/3 32/1/3 41/1/3
f 43/1/3 11/1/3 9/1/3
f 43/2/3 40/2/3 39/2/3
f 43/2/3 42/2/3 41/2/3
f 43/2/3 39/2/3 11/2/3
f 43/2/3 41/2/3 40/2/3
f 44/2/3 12/2/3 42/2/3
f 44/2/3 42/2/3 43/2/3
f 44/1/3 10/1/3 12/1/3
f 45/1/3 43/1/3 9/1/3
f 45/1/3 44/1/3 43/1/3
f 46/1/3 10/1/3 44/1/3
f 46/1/3 44/1/3 45/1/3
f 47/1/4 48/1/4 49/1/4
f 49/1/4 48/1/4 50/1/4
f 53/1/5 52/1/5 51/1/5
f 54/1/5 52/1/5 53/1/5
f 55/1/6 56/1/6 57/1/6
f 57/1/6 56/1/6 58/1/6
