# MagicaVoxel @ Ephtracy

# group
o 

# material
mtllib pipeStraight.mtl
usemtl palette

# normals
vn -1 0 0
vn 1 0 0
vn 0 0 1
vn 0 0 -1
vn 0 -1 0
vn 0 1 0

# texcoords
vt 0.943359 0.5
vt 0.947266 0.5
vt 0.955078 0.5

# verts
v -2 1.5 0.5
v -2 1.5 -0.1
v -2 1.6 0.6
v -2 1.6 0.5
v -2 1.6 -0.1
v -2 1.6 -0.2
v -2 1.7 0.7
v -2 1.7 0.6
v -2 1.7 -0.2
v -2 1.7 -0.3
v -2 2.3 0.7
v -2 2.3 0.6
v -2 2.3 -0.2
v -2 2.3 -0.3
v -2 2.4 0.6
v -2 2.4 0.5
v -2 2.4 -0.1
v -2 2.4 -0.2
v -2 2.5 0.5
v -2 2.5 -0.1
v -1.4 1.4 0.5
v -1.4 1.4 -0.1
v -1.4 1.5 0.6
v -1.4 1.5 0.5
v -1.4 1.5 -0.1
v -1.4 1.5 -0.2
v -1.4 1.6 0.7
v -1.4 1.6 0.6
v -1.4 1.6 0.5
v -1.4 1.6 -0.1
v -1.4 1.6 -0.2
v -1.4 1.6 -0.3
v -1.4 1.7 0.8
v -1.4 1.7 0.7
v -1.4 1.7 0.6
v -1.4 1.7 -0.2
v -1.4 1.7 -0.3
v -1.4 1.7 -0.4
v -1.4 2.3 0.8
v -1.4 2.3 0.7
v -1.4 2.3 0.6
v -1.4 2.3 -0.2
v -1.4 2.3 -0.3
v -1.4 2.3 -0.4
v -1.4 2.4 0.7
v -1.4 2.4 0.6
v -1.4 2.4 0.5
v -1.4 2.4 -0.1
v -1.4 2.4 -0.2
v -1.4 2.4 -0.3
v -1.4 2.5 0.6
v -1.4 2.5 0.5
v -1.4 2.5 -0.1
v -1.4 2.5 -0.2
v -1.4 2.6 0.5
v -1.4 2.6 -0.1
v 1.3 1.4 0.5
v 1.3 1.4 -0.1
v 1.3 1.5 0.6
v 1.3 1.5 0.5
v 1.3 1.5 -0.1
v 1.3 1.5 -0.2
v 1.3 1.6 0.7
v 1.3 1.6 0.6
v 1.3 1.6 0.5
v 1.3 1.6 -0.1
v 1.3 1.6 -0.2
v 1.3 1.6 -0.3
v 1.3 1.7 0.8
v 1.3 1.7 0.7
v 1.3 1.7 0.6
v 1.3 1.7 -0.2
v 1.3 1.7 -0.3
v 1.3 1.7 -0.4
v 1.3 2.3 0.8
v 1.3 2.3 0.7
v 1.3 2.3 0.6
v 1.3 2.3 -0.2
v 1.3 2.3 -0.3
v 1.3 2.3 -0.4
v 1.3 2.4 0.7
v 1.3 2.4 0.6
v 1.3 2.4 0.5
v 1.3 2.4 -0.1
v 1.3 2.4 -0.2
v 1.3 2.4 -0.3
v 1.3 2.5 0.6
v 1.3 2.5 0.5
v 1.3 2.5 -0.1
v 1.3 2.5 -0.2
v 1.3 2.6 0.5
v 1.3 2.6 -0.1
v -1.3 1.4 0.5
v -1.3 1.4 -0.1
v -1.3 1.5 0.6
v -1.3 1.5 0.5
v -1.3 1.5 -0.1
v -1.3 1.5 -0.2
v -1.3 1.6 0.7
v -1.3 1.6 0.6
v -1.3 1.6 0.5
v -1.3 1.6 -0.1
v -1.3 1.6 -0.2
v -1.3 1.6 -0.3
v -1.3 1.7 0.8
v -1.3 1.7 0.7
v -1.3 1.7 0.6
v -1.3 1.7 -0.2
v -1.3 1.7 -0.3
v -1.3 1.7 -0.4
v -1.3 2.3 0.8
v -1.3 2.3 0.7
v -1.3 2.3 0.6
v -1.3 2.3 -0.2
v -1.3 2.3 -0.3
v -1.3 2.3 -0.4
v -1.3 2.4 0.7
v -1.3 2.4 0.6
v -1.3 2.4 0.5
v -1.3 2.4 -0.1
v -1.3 2.4 -0.2
v -1.3 2.4 -0.3
v -1.3 2.5 0.6
v -1.3 2.5 0.5
v -1.3 2.5 -0.1
v -1.3 2.5 -0.2
v -1.3 2.6 0.5
v -1.3 2.6 -0.1
v 1.4 1.4 0.5
v 1.4 1.4 -0.1
v 1.4 1.5 0.6
v 1.4 1.5 0.5
v 1.4 1.5 -0.1
v 1.4 1.5 -0.2
v 1.4 1.6 0.7
v 1.4 1.6 0.6
v 1.4 1.6 0.5
v 1.4 1.6 -0.1
v 1.4 1.6 -0.2
v 1.4 1.6 -0.3
v 1.4 1.7 0.8
v 1.4 1.7 0.7
v 1.4 1.7 0.6
v 1.4 1.7 -0.2
v 1.4 1.7 -0.3
v 1.4 1.7 -0.4
v 1.4 2.3 0.8
v 1.4 2.3 0.7
v 1.4 2.3 0.6
v 1.4 2.3 -0.2
v 1.4 2.3 -0.3
v 1.4 2.3 -0.4
v 1.4 2.4 0.7
v 1.4 2.4 0.6
v 1.4 2.4 0.5
v 1.4 2.4 -0.1
v 1.4 2.4 -0.2
v 1.4 2.4 -0.3
v 1.4 2.5 0.6
v 1.4 2.5 0.5
v 1.4 2.5 -0.1
v 1.4 2.5 -0.2
v 1.4 2.6 0.5
v 1.4 2.6 -0.1
v 2 1.5 0.5
v 2 1.5 -0.1
v 2 1.6 0.6
v 2 1.6 0.5
v 2 1.6 -0.1
v 2 1.6 -0.2
v 2 1.7 0.7
v 2 1.7 0.6
v 2 1.7 -0.2
v 2 1.7 -0.3
v 2 2 0.7
v 2 2 0.5
v 2 2 -0.2
v 2 2 -0.3
v 2 2.1 0.7
v 2 2.1 0.5
v 2 2.1 -0.2
v 2 2.1 -0.3
v 2 2.3 0.7
v 2 2.3 0.6
v 2 2.3 -0.2
v 2 2.3 -0.3
v 2 2.4 0.6
v 2 2.4 0.5
v 2 2.4 -0.1
v 2 2.4 -0.2
v 2 2.5 0.5
v 2 2.5 -0.1
v -1.4 1.7 0.8
v -1.4 2.3 0.8
v -1.3 1.7 0.8
v -1.3 2.3 0.8
v 1.3 1.7 0.8
v 1.3 2.3 0.8
v 1.4 1.7 0.8
v 1.4 2.3 0.8
v -2 1.7 0.7
v -2 2.3 0.7
v -1.9 1.9 0.7
v -1.9 2.1 0.7
v -1.8 1.9 0.7
v -1.8 2 0.7
v -1.7 2 0.7
v -1.7 2.1 0.7
v -1.4 1.6 0.7
v -1.4 1.7 0.7
v -1.4 2.3 0.7
v -1.4 2.4 0.7
v -1.3 1.6 0.7
v -1.3 1.7 0.7
v -1.3 2.3 0.7
v -1.3 2.4 0.7
v -1.1 1.8 0.7
v -1.1 1.9 0.7
v -0.5 2 0.7
v -0.5 2.1 0.7
v -0.4 1.8 0.7
v -0.4 1.9 0.7
v 0.4 2 0.7
v 0.4 2.1 0.7
v 0.7 2.1 0.7
v 0.7 2.2 0.7
v 1 2.1 0.7
v 1 2.2 0.7
v 1.3 1.6 0.7
v 1.3 1.7 0.7
v 1.3 2.3 0.7
v 1.3 2.4 0.7
v 1.4 1.6 0.7
v 1.4 1.7 0.7
v 1.4 2.3 0.7
v 1.4 2.4 0.7
v 1.7 2 0.7
v 1.7 2.1 0.7
v 2 1.7 0.7
v 2 2 0.7
v 2 2.1 0.7
v 2 2.3 0.7
v -2 1.6 0.6
v -2 1.7 0.6
v -2 2.3 0.6
v -2 2.4 0.6
v -1.4 1.5 0.6
v -1.4 1.6 0.6
v -1.4 1.7 0.6
v -1.4 2.3 0.6
v -1.4 2.4 0.6
v -1.4 2.5 0.6
v -1.3 1.5 0.6
v -1.3 1.6 0.6
v -1.3 1.7 0.6
v -1.3 2.3 0.6
v -1.3 2.4 0.6
v -1.3 2.5 0.6
v -1.1 1.6 0.6
v -1.1 1.7 0.6
v -0.6 1.6 0.6
v -0.6 1.7 0.6
v -0.4 2.3 0.6
v -0.4 2.4 0.6
v 0.3 2.3 0.6
v 0.3 2.4 0.6
v 0.8 1.6 0.6
v 0.8 1.7 0.6
v 1.2 1.6 0.6
v 1.2 1.7 0.6
v 1.3 1.5 0.6
v 1.3 1.6 0.6
v 1.3 1.7 0.6
v 1.3 2.3 0.6
v 1.3 2.4 0.6
v 1.3 2.5 0.6
v 1.4 1.5 0.6
v 1.4 1.6 0.6
v 1.4 1.7 0.6
v 1.4 2.3 0.6
v 1.4 2.4 0.6
v 1.4 2.5 0.6
v 2 1.6 0.6
v 2 1.7 0.6
v 2 2.3 0.6
v 2 2.4 0.6
v -2 1.5 0.5
v -2 1.6 0.5
v -2 2.4 0.5
v -2 2.5 0.5
v -1.4 1.4 0.5
v -1.4 1.5 0.5
v -1.4 1.6 0.5
v -1.4 2.4 0.5
v -1.4 2.5 0.5
v -1.4 2.6 0.5
v -1.3 1.4 0.5
v -1.3 1.5 0.5
v -1.3 1.6 0.5
v -1.3 2.4 0.5
v -1.3 2.5 0.5
v -1.3 2.6 0.5
v -1.1 1.6 0.5
v -0.6 1.6 0.5
v -0.4 2.4 0.5
v 0.3 2.4 0.5
v 0.8 1.6 0.5
v 1.2 1.6 0.5
v 1.3 1.4 0.5
v 1.3 1.5 0.5
v 1.3 1.6 0.5
v 1.3 2.4 0.5
v 1.3 2.5 0.5
v 1.3 2.6 0.5
v 1.4 1.4 0.5
v 1.4 1.5 0.5
v 1.4 1.6 0.5
v 1.4 2.4 0.5
v 1.4 2.5 0.5
v 1.4 2.6 0.5
v 2 1.5 0.5
v 2 1.6 0.5
v 2 2.4 0.5
v 2 2.5 0.5
v -2 1.5 -0.1
v -2 1.6 -0.1
v -2 2.4 -0.1
v -2 2.5 -0.1
v -1.4 1.4 -0.1
v -1.4 1.5 -0.1
v -1.4 1.6 -0.1
v -1.4 2.4 -0.1
v -1.4 2.5 -0.1
v -1.4 2.6 -0.1
v -1.3 1.4 -0.1
v -1.3 1.5 -0.1
v -1.3 1.6 -0.1
v -1.3 2.4 -0.1
v -1.3 2.5 -0.1
v -1.3 2.6 -0.1
v 1.3 1.4 -0.1
v 1.3 1.5 -0.1
v 1.3 1.6 -0.1
v 1.3 2.4 -0.1
v 1.3 2.5 -0.1
v 1.3 2.6 -0.1
v 1.4 1.4 -0.1
v 1.4 1.5 -0.1
v 1.4 1.6 -0.1
v 1.4 2.4 -0.1
v 1.4 2.5 -0.1
v 1.4 2.6 -0.1
v 2 1.5 -0.1
v 2 1.6 -0.1
v 2 2.4 -0.1
v 2 2.5 -0.1
v -2 1.6 -0.2
v -2 1.7 -0.2
v -2 2.3 -0.2
v -2 2.4 -0.2
v -1.4 1.5 -0.2
v -1.4 1.6 -0.2
v -1.4 1.7 -0.2
v -1.4 2.3 -0.2
v -1.4 2.4 -0.2
v -1.4 2.5 -0.2
v -1.3 1.5 -0.2
v -1.3 1.6 -0.2
v -1.3 1.7 -0.2
v -1.3 2.3 -0.2
v -1.3 2.4 -0.2
v -1.3 2.5 -0.2
v 1.3 1.5 -0.2
v 1.3 1.6 -0.2
v 1.3 1.7 -0.2
v 1.3 2.3 -0.2
v 1.3 2.4 -0.2
v 1.3 2.5 -0.2
v 1.4 1.5 -0.2
v 1.4 1.6 -0.2
v 1.4 1.7 -0.2
v 1.4 2.3 -0.2
v 1.4 2.4 -0.2
v 1.4 2.5 -0.2
v 2 1.6 -0.2
v 2 1.7 -0.2
v 2 2.3 -0.2
v 2 2.4 -0.2
v -2 1.7 -0.3
v -2 2.3 -0.3
v -1.4 1.6 -0.3
v -1.4 1.7 -0.3
v -1.4 2.3 -0.3
v -1.4 2.4 -0.3
v -1.3 1.6 -0.3
v -1.3 1.7 -0.3
v -1.3 2.3 -0.3
v -1.3 2.4 -0.3
v 1.3 1.6 -0.3
v 1.3 1.7 -0.3
v 1.3 2.3 -0.3
v 1.3 2.4 -0.3
v 1.4 1.6 -0.3
v 1.4 1.7 -0.3
v 1.4 2.3 -0.3
v 1.4 2.4 -0.3
v 1.7 2 -0.3
v 1.7 2.1 -0.3
v 2 1.7 -0.3
v 2 2 -0.3
v 2 2.1 -0.3
v 2 2.3 -0.3
v -1.4 1.7 -0.4
v -1.4 2.3 -0.4
v -1.3 1.7 -0.4
v -1.3 2.3 -0.4
v 1.3 1.7 -0.4
v 1.3 2.3 -0.4
v 1.4 1.7 -0.4
v 1.4 2.3 -0.4
v -1.4 1.4 0.5
v -1.3 1.4 0.5
v 1.3 1.4 0.5
v 1.4 1.4 0.5
v -1.4 1.4 -0.1
v -1.3 1.4 -0.1
v 1.3 1.4 -0.1
v 1.4 1.4 -0.1
v -1.4 1.5 0.6
v -1.3 1.5 0.6
v 1.3 1.5 0.6
v 1.4 1.5 0.6
v -2 1.5 0.5
v -1.4 1.5 0.5
v -1.3 1.5 0.5
v 1.3 1.5 0.5
v 1.4 1.5 0.5
v 2 1.5 0.5
v -0.5 1.5 0.3
v 0.1 1.5 0.3
v -0.5 1.5 0.2
v 0.1 1.5 0.2
v -1 1.5 0.1
v -0.9 1.5 0.1
v -1 1.5 -5.96046e-08
v -0.9 1.5 -5.96046e-08
v -2 1.5 -0.1
v -1.4 1.5 -0.1
v -1.3 1.5 -0.1
v 1.3 1.5 -0.1
v 1.4 1.5 -0.1
v 2 1.5 -0.1
v -1.4 1.5 -0.2
v -1.3 1.5 -0.2
v 1.3 1.5 -0.2
v 1.4 1.5 -0.2
v -1.4 1.6 0.7
v -1.3 1.6 0.7
v 1.3 1.6 0.7
v 1.4 1.6 0.7
v -2 1.6 0.6
v -1.4 1.6 0.6
v -1.3 1.6 0.6
v -1.1 1.6 0.6
v -0.6 1.6 0.6
v 0.8 1.6 0.6
v 1.2 1.6 0.6
v 1.3 1.6 0.6
v 1.4 1.6 0.6
v 2 1.6 0.6
v -2 1.6 0.5
v -1.4 1.6 0.5
v -1.3 1.6 0.5
v -1.1 1.6 0.5
v -0.6 1.6 0.5
v 0.8 1.6 0.5
v 1.2 1.6 0.5
v 1.3 1.6 0.5
v 1.4 1.6 0.5
v 2 1.6 0.5
v -2 1.6 -0.1
v -1.4 1.6 -0.1
v -1.3 1.6 -0.1
v 1.3 1.6 -0.1
v 1.4 1.6 -0.1
v 2 1.6 -0.1
v -2 1.6 -0.2
v -1.4 1.6 -0.2
v -1.3 1.6 -0.2
v 1.3 1.6 -0.2
v 1.4 1.6 -0.2
v 2 1.6 -0.2
v -1.4 1.6 -0.3
v -1.3 1.6 -0.3
v 1.3 1.6 -0.3
v 1.4 1.6 -0.3
v -1.4 1.7 0.8
v -1.3 1.7 0.8
v 1.3 1.7 0.8
v 1.4 1.7 0.8
v -2 1.7 0.7
v -1.4 1.7 0.7
v -1.3 1.7 0.7
v 1.3 1.7 0.7
v 1.4 1.7 0.7
v 2 1.7 0.7
v -2 1.7 0.6
v -1.4 1.7 0.6
v -1.3 1.7 0.6
v -1.1 1.7 0.6
v -0.6 1.7 0.6
v 0.8 1.7 0.6
v 1.2 1.7 0.6
v 1.3 1.7 0.6
v 1.4 1.7 0.6
v 2 1.7 0.6
v -2 1.7 -0.2
v -1.4 1.7 -0.2
v -1.3 1.7 -0.2
v 1.3 1.7 -0.2
v 1.4 1.7 -0.2
v 2 1.7 -0.2
v -2 1.7 -0.3
v -1.4 1.7 -0.3
v -1.3 1.7 -0.3
v 1.3 1.7 -0.3
v 1.4 1.7 -0.3
v 2 1.7 -0.3
v -1.4 1.7 -0.4
v -1.3 1.7 -0.4
v 1.3 1.7 -0.4
v 1.4 1.7 -0.4
v -1.4 2.3 0.8
v -1.3 2.3 0.8
v 1.3 2.3 0.8
v 1.4 2.3 0.8
v -2 2.3 0.7
v -1.4 2.3 0.7
v -1.3 2.3 0.7
v 1.3 2.3 0.7
v 1.4 2.3 0.7
v 2 2.3 0.7
v -2 2.3 0.6
v -1.4 2.3 0.6
v -1.3 2.3 0.6
v -0.4 2.3 0.6
v 0.3 2.3 0.6
v 1.3 2.3 0.6
v 1.4 2.3 0.6
v 2 2.3 0.6
v -2 2.3 -0.2
v -1.4 2.3 -0.2
v -1.3 2.3 -0.2
v 1.3 2.3 -0.2
v 1.4 2.3 -0.2
v 2 2.3 -0.2
v -2 2.3 -0.3
v -1.4 2.3 -0.3
v -1.3 2.3 -0.3
v 1.3 2.3 -0.3
v 1.4 2.3 -0.3
v 2 2.3 -0.3
v -1.4 2.3 -0.4
v -1.3 2.3 -0.4
v 1.3 2.3 -0.4
v 1.4 2.3 -0.4
v -1.4 2.4 0.7
v -1.3 2.4 0.7
v 1.3 2.4 0.7
v 1.4 2.4 0.7
v -2 2.4 0.6
v -1.4 2.4 0.6
v -1.3 2.4 0.6
v -0.4 2.4 0.6
v 0.3 2.4 0.6
v 1.3 2.4 0.6
v 1.4 2.4 0.6
v 2 2.4 0.6
v -2 2.4 0.5
v -1.4 2.4 0.5
v -1.3 2.4 0.5
v -0.4 2.4 0.5
v 0.3 2.4 0.5
v 1.3 2.4 0.5
v 1.4 2.4 0.5
v 2 2.4 0.5
v -2 2.4 -0.1
v -1.4 2.4 -0.1
v -1.3 2.4 -0.1
v 1.3 2.4 -0.1
v 1.4 2.4 -0.1
v 2 2.4 -0.1
v -2 2.4 -0.2
v -1.4 2.4 -0.2
v -1.3 2.4 -0.2
v 1.3 2.4 -0.2
v 1.4 2.4 -0.2
v 2 2.4 -0.2
v -1.4 2.4 -0.3
v -1.3 2.4 -0.3
v 1.3 2.4 -0.3
v 1.4 2.4 -0.3
v -1.4 2.5 0.6
v -1.3 2.5 0.6
v 1.3 2.5 0.6
v 1.4 2.5 0.6
v -2 2.5 0.5
v -1.4 2.5 0.5
v -1.3 2.5 0.5
v 1.3 2.5 0.5
v 1.4 2.5 0.5
v 2 2.5 0.5
v -1.2 2.5 0.3
v -0.9 2.5 0.3
v -1.2 2.5 0.2
v -0.9 2.5 0.2
v -0.3 2.5 0.2
v 0.3 2.5 0.2
v -0.3 2.5 0.1
v 0.3 2.5 0.1
v -2 2.5 -0.1
v -1.4 2.5 -0.1
v -1.3 2.5 -0.1
v 1.3 2.5 -0.1
v 1.4 2.5 -0.1
v 2 2.5 -0.1
v -1.4 2.5 -0.2
v -1.3 2.5 -0.2
v 1.3 2.5 -0.2
v 1.4 2.5 -0.2
v -1.4 2.6 0.5
v -1.3 2.6 0.5
v 1.3 2.6 0.5
v 1.4 2.6 0.5
v -1.4 2.6 -0.1
v -1.3 2.6 -0.1
v 1.3 2.6 -0.1
v 1.4 2.6 -0.1

# faces
f 4/2/1 2/2/1 1/2/1
f 5/2/1 2/2/1 4/2/1
f 8/2/1 4/2/1 3/2/1
f 8/2/1 6/2/1 5/2/1
f 8/2/1 5/2/1 4/2/1
f 9/2/1 6/2/1 8/2/1
f 11/2/1 8/2/1 7/2/1
f 11/2/1 10/2/1 9/2/1
f 11/2/1 9/2/1 8/2/1
f 12/2/1 10/2/1 11/2/1
f 13/2/1 10/2/1 12/2/1
f 14/2/1 10/2/1 13/2/1
f 15/2/1 13/2/1 12/2/1
f 16/2/1 13/2/1 15/2/1
f 17/2/1 13/2/1 16/2/1
f 18/2/1 13/2/1 17/2/1
f 19/2/1 17/2/1 16/2/1
f 20/2/1 17/2/1 19/2/1
f 24/1/1 22/1/1 21/1/1
f 25/1/1 22/1/1 24/1/1
f 28/1/1 24/1/1 23/1/1
f 29/1/1 24/1/1 28/1/1
f 30/1/1 26/1/1 25/1/1
f 31/1/1 26/1/1 30/1/1
f 34/1/1 28/1/1 27/1/1
f 35/1/1 28/1/1 34/1/1
f 36/1/1 32/1/1 31/1/1
f 37/1/1 32/1/1 36/1/1
f 39/1/1 34/1/1 33/1/1
f 40/1/1 34/1/1 39/1/1
f 43/1/1 38/1/1 37/1/1
f 44/1/1 38/1/1 43/1/1
f 45/1/1 41/1/1 40/1/1
f 46/1/1 41/1/1 45/1/1
f 49/1/1 43/1/1 42/1/1
f 50/1/1 43/1/1 49/1/1
f 51/1/1 47/1/1 46/1/1
f 52/1/1 47/1/1 51/1/1
f 53/1/1 49/1/1 48/1/1
f 54/1/1 49/1/1 53/1/1
f 55/1/1 53/1/1 52/1/1
f 56/1/1 53/1/1 55/1/1
f 60/1/1 58/1/1 57/1/1
f 61/1/1 58/1/1 60/1/1
f 64/1/1 60/1/1 59/1/1
f 65/1/1 60/1/1 64/1/1
f 66/1/1 62/1/1 61/1/1
f 67/1/1 62/1/1 66/1/1
f 70/1/1 64/1/1 63/1/1
f 71/1/1 64/1/1 70/1/1
f 72/1/1 68/1/1 67/1/1
f 73/1/1 68/1/1 72/1/1
f 75/1/1 70/1/1 69/1/1
f 76/1/1 70/1/1 75/1/1
f 79/1/1 74/1/1 73/1/1
f 80/1/1 74/1/1 79/1/1
f 81/1/1 77/1/1 76/1/1
f 82/1/1 77/1/1 81/1/1
f 85/1/1 79/1/1 78/1/1
f 86/1/1 79/1/1 85/1/1
f 87/1/1 83/1/1 82/1/1
f 88/1/1 83/1/1 87/1/1
f 89/1/1 85/1/1 84/1/1
f 90/1/1 85/1/1 89/1/1
f 91/1/1 89/1/1 88/1/1
f 92/1/1 89/1/1 91/1/1
f 93/1/2 94/1/2 96/1/2
f 96/1/2 94/1/2 97/1/2
f 95/1/2 96/1/2 100/1/2
f 100/1/2 96/1/2 101/1/2
f 97/1/2 98/1/2 102/1/2
f 102/1/2 98/1/2 103/1/2
f 99/1/2 100/1/2 106/1/2
f 106/1/2 100/1/2 107/1/2
f 103/1/2 104/1/2 108/1/2
f 108/1/2 104/1/2 109/1/2
f 105/1/2 106/1/2 111/1/2
f 111/1/2 106/1/2 112/1/2
f 109/1/2 110/1/2 115/1/2
f 115/1/2 110/1/2 116/1/2
f 112/1/2 113/1/2 117/1/2
f 117/1/2 113/1/2 118/1/2
f 114/1/2 115/1/2 121/1/2
f 121/1/2 115/1/2 122/1/2
f 118/1/2 119/1/2 123/1/2
f 123/1/2 119/1/2 124/1/2
f 120/1/2 121/1/2 125/1/2
f 125/1/2 121/1/2 126/1/2
f 124/1/2 125/1/2 127/1/2
f 127/1/2 125/1/2 128/1/2
f 129/1/2 130/1/2 132/1/2
f 132/1/2 130/1/2 133/1/2
f 131/1/2 132/1/2 136/1/2
f 136/1/2 132/1/2 137/1/2
f 133/1/2 134/1/2 138/1/2
f 138/1/2 134/1/2 139/1/2
f 135/1/2 136/1/2 142/1/2
f 142/1/2 136/1/2 143/1/2
f 139/1/2 140/1/2 144/1/2
f 144/1/2 140/1/2 145/1/2
f 141/1/2 142/1/2 147/1/2
f 147/1/2 142/1/2 148/1/2
f 145/1/2 146/1/2 151/1/2
f 151/1/2 146/1/2 152/1/2
f 148/1/2 149/1/2 153/1/2
f 153/1/2 149/1/2 154/1/2
f 150/1/2 151/1/2 157/1/2
f 157/1/2 151/1/2 158/1/2
f 154/1/2 155/1/2 159/1/2
f 159/1/2 155/1/2 160/1/2
f 156/1/2 157/1/2 161/1/2
f 161/1/2 157/1/2 162/1/2
f 160/1/2 161/1/2 163/1/2
f 163/1/2 161/1/2 164/1/2
f 165/2/2 166/2/2 168/2/2
f 168/2/2 166/2/2 169/2/2
f 167/2/2 168/2/2 172/2/2
f 169/2/2 170/2/2 172/2/2
f 168/2/2 169/2/2 172/2/2
f 172/2/2 170/2/2 173/2/2
f 171/2/2 172/2/2 175/2/2
f 173/2/2 174/2/2 175/2/2
f 172/2/2 173/2/2 175/2/2
f 175/2/2 174/2/2 176/2/2
f 176/2/2 174/2/2 177/2/2
f 177/2/2 174/2/2 178/2/2
f 175/3/2 176/3/2 179/3/2
f 176/2/2 177/2/2 180/2/2
f 179/3/2 176/3/2 180/3/2
f 177/3/2 178/3/2 181/3/2
f 180/2/2 177/2/2 181/2/2
f 181/3/2 178/3/2 182/3/2
f 179/2/2 180/2/2 183/2/2
f 180/2/2 181/2/2 183/2/2
f 181/2/2 182/2/2 183/2/2
f 183/2/2 182/2/2 184/2/2
f 184/2/2 182/2/2 185/2/2
f 185/2/2 182/2/2 186/2/2
f 184/2/2 185/2/2 187/2/2
f 187/2/2 185/2/2 188/2/2
f 188/2/2 185/2/2 189/2/2
f 189/2/2 185/2/2 190/2/2
f 188/2/2 189/2/2 191/2/2
f 191/2/2 189/2/2 192/2/2
f 195/1/3 194/1/3 193/1/3
f 196/1/3 194/1/3 195/1/3
f 199/1/3 198/1/3 197/1/3
f 200/1/3 198/1/3 199/1/3
f 203/2/3 202/2/3 201/2/3
f 204/2/3 202/2/3 203/2/3
f 205/2/3 203/2/3 201/2/3
f 205/3/3 204/3/3 203/3/3
f 206/3/3 204/3/3 205/3/3
f 207/2/3 206/2/3 205/2/3
f 207/3/3 204/3/3 206/3/3
f 208/2/3 202/2/3 204/2/3
f 208/3/3 204/3/3 207/3/3
f 210/2/3 207/2/3 205/2/3
f 210/2/3 205/2/3 201/2/3
f 210/2/3 208/2/3 207/2/3
f 211/2/3 202/2/3 208/2/3
f 211/2/3 208/2/3 210/2/3
f 213/1/3 210/1/3 209/1/3
f 214/1/3 210/1/3 213/1/3
f 215/1/3 212/1/3 211/1/3
f 216/1/3 212/1/3 215/1/3
f 217/2/3 215/2/3 214/2/3
f 218/2/3 215/2/3 217/2/3
f 219/2/3 215/2/3 218/2/3
f 220/2/3 215/2/3 219/2/3
f 221/2/3 217/2/3 214/2/3
f 221/3/3 218/3/3 217/3/3
f 222/2/3 219/2/3 218/2/3
f 222/3/3 218/3/3 221/3/3
f 223/3/3 220/3/3 219/3/3
f 223/2/3 219/2/3 222/2/3
f 223/2/3 222/2/3 221/2/3
f 224/2/3 215/2/3 220/2/3
f 224/3/3 220/3/3 223/3/3
f 225/2/3 224/2/3 223/2/3
f 225/2/3 215/2/3 224/2/3
f 226/2/3 215/2/3 225/2/3
f 227/2/3 225/2/3 223/2/3
f 227/3/3 226/3/3 225/3/3
f 228/2/3 215/2/3 226/2/3
f 228/3/3 226/3/3 227/3/3
f 230/2/3 223/2/3 221/2/3
f 230/2/3 221/2/3 214/2/3
f 230/2/3 228/2/3 227/2/3
f 230/2/3 227/2/3 223/2/3
f 231/2/3 215/2/3 228/2/3
f 231/2/3 228/2/3 230/2/3
f 233/1/3 230/1/3 229/1/3
f 234/1/3 230/1/3 233/1/3
f 235/1/3 232/1/3 231/1/3
f 236/1/3 232/1/3 235/1/3
f 237/2/3 235/2/3 234/2/3
f 238/2/3 235/2/3 237/2/3
f 239/2/3 237/2/3 234/2/3
f 240/3/3 238/3/3 237/3/3
f 240/2/3 237/2/3 239/2/3
f 241/2/3 235/2/3 238/2/3
f 241/3/3 238/3/3 240/3/3
f 242/2/3 235/2/3 241/2/3
f 248/2/3 244/2/3 243/2/3
f 249/2/3 244/2/3 248/2/3
f 250/2/3 246/2/3 245/2/3
f 251/2/3 246/2/3 250/2/3
f 253/1/3 248/1/3 247/1/3
f 254/1/3 248/1/3 253/1/3
f 257/1/3 252/1/3 251/1/3
f 258/1/3 252/1/3 257/1/3
f 259/2/3 255/2/3 254/2/3
f 260/2/3 255/2/3 259/2/3
f 261/3/3 260/3/3 259/3/3
f 262/3/3 260/3/3 261/3/3
f 263/2/3 257/2/3 256/2/3
f 264/2/3 257/2/3 263/2/3
f 265/3/3 264/3/3 263/3/3
f 266/3/3 264/3/3 265/3/3
f 267/2/3 262/2/3 261/2/3
f 268/2/3 262/2/3 267/2/3
f 269/3/3 268/3/3 267/3/3
f 270/3/3 268/3/3 269/3/3
f 272/2/3 270/2/3 269/2/3
f 273/2/3 270/2/3 272/2/3
f 274/2/3 266/2/3 265/2/3
f 275/2/3 266/2/3 274/2/3
f 277/1/3 272/1/3 271/1/3
f 278/1/3 272/1/3 277/1/3
f 281/1/3 276/1/3 275/1/3
f 282/1/3 276/1/3 281/1/3
f 283/2/3 279/2/3 278/2/3
f 284/2/3 279/2/3 283/2/3
f 285/2/3 281/2/3 280/2/3
f 286/2/3 281/2/3 285/2/3
f 292/2/3 288/2/3 287/2/3
f 293/2/3 288/2/3 292/2/3
f 294/2/3 290/2/3 289/2/3
f 295/2/3 290/2/3 294/2/3
f 297/1/3 292/1/3 291/1/3
f 298/1/3 292/1/3 297/1/3
f 301/1/3 296/1/3 295/1/3
f 302/1/3 296/1/3 301/1/3
f 303/2/3 299/2/3 298/2/3
f 304/2/3 303/2/3 298/2/3
f 305/2/3 301/2/3 300/2/3
f 306/2/3 301/2/3 305/2/3
f 307/2/3 304/2/3 298/2/3
f 308/2/3 307/2/3 298/2/3
f 310/2/3 308/2/3 298/2/3
f 311/2/3 308/2/3 310/2/3
f 312/2/3 301/2/3 306/2/3
f 313/2/3 301/2/3 312/2/3
f 315/1/3 310/1/3 309/1/3
f 316/1/3 310/1/3 315/1/3
f 319/1/3 314/1/3 313/1/3
f 320/1/3 314/1/3 319/1/3
f 321/2/3 317/2/3 316/2/3
f 322/2/3 317/2/3 321/2/3
f 323/2/3 319/2/3 318/2/3
f 324/2/3 319/2/3 323/2/3
f 325/2/4 326/2/4 330/2/4
f 330/2/4 326/2/4 331/2/4
f 327/2/4 328/2/4 332/2/4
f 332/2/4 328/2/4 333/2/4
f 329/1/4 330/1/4 335/1/4
f 335/1/4 330/1/4 336/1/4
f 333/1/4 334/1/4 339/1/4
f 339/1/4 334/1/4 340/1/4
f 336/2/4 337/2/4 342/2/4
f 342/2/4 337/2/4 343/2/4
f 338/2/4 339/2/4 344/2/4
f 344/2/4 339/2/4 345/2/4
f 341/1/4 342/1/4 347/1/4
f 347/1/4 342/1/4 348/1/4
f 345/1/4 346/1/4 351/1/4
f 351/1/4 346/1/4 352/1/4
f 348/2/4 349/2/4 353/2/4
f 353/2/4 349/2/4 354/2/4
f 350/2/4 351/2/4 355/2/4
f 355/2/4 351/2/4 356/2/4
f 357/2/4 358/2/4 362/2/4
f 362/2/4 358/2/4 363/2/4
f 359/2/4 360/2/4 364/2/4
f 364/2/4 360/2/4 365/2/4
f 361/1/4 362/1/4 367/1/4
f 367/1/4 362/1/4 368/1/4
f 365/1/4 366/1/4 371/1/4
f 371/1/4 366/1/4 372/1/4
f 368/2/4 369/2/4 374/2/4
f 374/2/4 369/2/4 375/2/4
f 370/2/4 371/2/4 376/2/4
f 376/2/4 371/2/4 377/2/4
f 373/1/4 374/1/4 379/1/4
f 379/1/4 374/1/4 380/1/4
f 377/1/4 378/1/4 383/1/4
f 383/1/4 378/1/4 384/1/4
f 380/2/4 381/2/4 385/2/4
f 385/2/4 381/2/4 386/2/4
f 382/2/4 383/2/4 387/2/4
f 387/2/4 383/2/4 388/2/4
f 389/2/4 390/2/4 392/2/4
f 392/2/4 390/2/4 393/2/4
f 391/1/4 392/1/4 395/1/4
f 395/1/4 392/1/4 396/1/4
f 393/1/4 394/1/4 397/1/4
f 397/1/4 394/1/4 398/1/4
f 396/2/4 397/2/4 400/2/4
f 400/2/4 397/2/4 401/2/4
f 399/1/4 400/1/4 403/1/4
f 403/1/4 400/1/4 404/1/4
f 401/1/4 402/1/4 405/1/4
f 405/1/4 402/1/4 406/1/4
f 404/2/4 405/2/4 407/2/4
f 407/2/4 405/2/4 408/2/4
f 404/2/4 407/2/4 409/2/4
f 407/3/4 408/3/4 410/3/4
f 409/2/4 407/2/4 410/2/4
f 408/2/4 405/2/4 411/2/4
f 410/3/4 408/3/4 411/3/4
f 411/2/4 405/2/4 412/2/4
f 413/1/4 414/1/4 415/1/4
f 415/1/4 414/1/4 416/1/4
f 417/1/4 418/1/4 419/1/4
f 419/1/4 418/1/4 420/1/4
f 425/1/5 422/1/5 421/1/5
f 426/1/5 422/1/5 425/1/5
f 427/1/5 424/1/5 423/1/5
f 428/1/5 424/1/5 427/1/5
f 434/1/5 430/1/5 429/1/5
f 435/1/5 430/1/5 434/1/5
f 436/1/5 432/1/5 431/1/5
f 437/1/5 432/1/5 436/1/5
f 439/2/5 436/2/5 435/2/5
f 440/2/5 436/2/5 439/2/5
f 441/2/5 439/2/5 435/2/5
f 441/3/5 440/3/5 439/3/5
f 442/2/5 436/2/5 440/2/5
f 442/3/5 440/3/5 441/3/5
f 443/2/5 441/2/5 435/2/5
f 443/2/5 442/2/5 441/2/5
f 444/2/5 442/2/5 443/2/5
f 445/2/5 443/2/5 435/2/5
f 445/3/5 444/3/5 443/3/5
f 446/2/5 442/2/5 444/2/5
f 446/3/5 444/3/5 445/3/5
f 447/2/5 434/2/5 433/2/5
f 448/2/5 434/2/5 447/2/5
f 449/2/5 445/2/5 435/2/5
f 449/2/5 446/2/5 445/2/5
f 450/2/5 442/2/5 446/2/5
f 450/2/5 436/2/5 442/2/5
f 450/2/5 446/2/5 449/2/5
f 451/2/5 438/2/5 437/2/5
f 452/2/5 438/2/5 451/2/5
f 453/1/5 449/1/5 448/1/5
f 454/1/5 449/1/5 453/1/5
f 455/1/5 451/1/5 450/1/5
f 456/1/5 451/1/5 455/1/5
f 462/1/5 458/1/5 457/1/5
f 463/1/5 458/1/5 462/1/5
f 468/1/5 460/1/5 459/1/5
f 469/1/5 460/1/5 468/1/5
f 471/2/5 462/2/5 461/2/5
f 472/2/5 462/2/5 471/2/5
f 473/2/5 464/2/5 463/2/5
f 474/3/5 465/3/5 464/3/5
f 474/2/5 464/2/5 473/2/5
f 475/2/5 466/2/5 465/2/5
f 475/3/5 465/3/5 474/3/5
f 476/3/5 467/3/5 466/3/5
f 476/2/5 466/2/5 475/2/5
f 477/2/5 468/2/5 467/2/5
f 477/3/5 467/3/5 476/3/5
f 478/2/5 468/2/5 477/2/5
f 479/2/5 470/2/5 469/2/5
f 480/2/5 470/2/5 479/2/5
f 487/2/5 482/2/5 481/2/5
f 488/2/5 482/2/5 487/2/5
f 489/2/5 484/2/5 483/2/5
f 490/2/5 484/2/5 489/2/5
f 491/2/5 486/2/5 485/2/5
f 492/2/5 486/2/5 491/2/5
f 493/1/5 489/1/5 488/1/5
f 494/1/5 489/1/5 493/1/5
f 495/1/5 491/1/5 490/1/5
f 496/1/5 491/1/5 495/1/5
f 502/1/5 498/1/5 497/1/5
f 503/1/5 498/1/5 502/1/5
f 504/1/5 500/1/5 499/1/5
f 505/1/5 500/1/5 504/1/5
f 507/2/5 502/2/5 501/2/5
f 508/2/5 502/2/5 507/2/5
f 509/2/5 504/2/5 503/2/5
f 510/2/5 504/2/5 509/2/5
f 511/2/5 504/2/5 510/2/5
f 512/2/5 504/2/5 511/2/5
f 513/2/5 504/2/5 512/2/5
f 514/2/5 504/2/5 513/2/5
f 515/2/5 506/2/5 505/2/5
f 516/2/5 506/2/5 515/2/5
f 523/2/5 518/2/5 517/2/5
f 524/2/5 518/2/5 523/2/5
f 525/2/5 520/2/5 519/2/5
f 526/2/5 520/2/5 525/2/5
f 527/2/5 522/2/5 521/2/5
f 528/2/5 522/2/5 527/2/5
f 529/1/5 525/1/5 524/1/5
f 530/1/5 525/1/5 529/1/5
f 531/1/5 527/1/5 526/1/5
f 532/1/5 527/1/5 531/1/5
f 533/1/6 534/1/6 538/1/6
f 538/1/6 534/1/6 539/1/6
f 535/1/6 536/1/6 540/1/6
f 540/1/6 536/1/6 541/1/6
f 537/2/6 538/2/6 543/2/6
f 543/2/6 538/2/6 544/2/6
f 539/2/6 540/2/6 545/2/6
f 545/2/6 540/2/6 546/2/6
f 546/2/6 540/2/6 547/2/6
f 547/2/6 540/2/6 548/2/6
f 541/2/6 542/2/6 549/2/6
f 549/2/6 542/2/6 550/2/6
f 551/2/6 552/2/6 557/2/6
f 557/2/6 552/2/6 558/2/6
f 553/2/6 554/2/6 559/2/6
f 559/2/6 554/2/6 560/2/6
f 555/2/6 556/2/6 561/2/6
f 561/2/6 556/2/6 562/2/6
f 558/1/6 559/1/6 563/1/6
f 563/1/6 559/1/6 564/1/6
f 560/1/6 561/1/6 565/1/6
f 565/1/6 561/1/6 566/1/6
f 567/1/6 568/1/6 572/1/6
f 572/1/6 568/1/6 573/1/6
f 569/1/6 570/1/6 576/1/6
f 576/1/6 570/1/6 577/1/6
f 571/2/6 572/2/6 579/2/6
f 579/2/6 572/2/6 580/2/6
f 573/2/6 574/2/6 581/2/6
f 574/3/6 575/3/6 582/3/6
f 581/2/6 574/2/6 582/2/6
f 575/2/6 576/2/6 583/2/6
f 582/3/6 575/3/6 583/3/6
f 583/2/6 576/2/6 584/2/6
f 577/2/6 578/2/6 585/2/6
f 585/2/6 578/2/6 586/2/6
f 587/2/6 588/2/6 593/2/6
f 593/2/6 588/2/6 594/2/6
f 589/2/6 590/2/6 595/2/6
f 595/2/6 590/2/6 596/2/6
f 591/2/6 592/2/6 597/2/6
f 597/2/6 592/2/6 598/2/6
f 594/1/6 595/1/6 599/1/6
f 599/1/6 595/1/6 600/1/6
f 596/1/6 597/1/6 601/1/6
f 601/1/6 597/1/6 602/1/6
f 603/1/6 604/1/6 608/1/6
f 608/1/6 604/1/6 609/1/6
f 605/1/6 606/1/6 610/1/6
f 610/1/6 606/1/6 611/1/6
f 609/2/6 610/2/6 613/2/6
f 613/2/6 610/2/6 614/2/6
f 609/2/6 613/2/6 615/2/6
f 613/3/6 614/3/6 615/3/6
f 614/2/6 610/2/6 616/2/6
f 615/3/6 614/3/6 616/3/6
f 616/2/6 610/2/6 617/2/6
f 617/2/6 610/2/6 618/2/6
f 615/2/6 616/2/6 619/2/6
f 616/2/6 617/2/6 619/2/6
f 617/3/6 618/3/6 619/3/6
f 618/2/6 610/2/6 620/2/6
f 619/3/6 618/3/6 620/3/6
f 607/2/6 608/2/6 621/2/6
f 621/2/6 608/2/6 622/2/6
f 609/2/6 615/2/6 623/2/6
f 615/2/6 619/2/6 623/2/6
f 619/2/6 620/2/6 623/2/6
f 620/2/6 610/2/6 624/2/6
f 623/2/6 620/2/6 624/2/6
f 611/2/6 612/2/6 625/2/6
f 625/2/6 612/2/6 626/2/6
f 622/1/6 623/1/6 627/1/6
f 627/1/6 623/1/6 628/1/6
f 624/1/6 625/1/6 629/1/6
f 629/1/6 625/1/6 630/1/6
f 631/1/6 632/1/6 635/1/6
f 635/1/6 632/1/6 636/1/6
f 633/1/6 634/1/6 637/1/6
f 637/1/6 634/1/6 638/1/6
