# MagicaVoxel @ Ephtracy

# group
o 

# material
mtllib terminal.mtl
usemtl palette

# normals
vn -1 0 0
vn 1 0 0
vn 0 0 1
vn 0 0 -1
vn 0 -1 0
vn 0 1 0

# texcoords
vt 0.869141 0.5
vt 0.884766 0.5
vt 0.892578 0.5
vt 0.900391 0.5
vt 0.904297 0.5

# verts
v -0.2 1.8 0.7
v -0.2 1.8 0.4
v -0.2 1.8 0.2
v -0.2 1.8 0.1
v -0.2 1.8 -0.1
v -0.2 1.8 -0.2
v -0.2 1.8 -0.4
v -0.2 1.8 -0.7
v -0.2 2.1 0.7
v -0.2 2.1 0.4
v -0.2 2.1 0.2
v -0.2 2.1 0.1
v -0.2 2.1 -0.1
v -0.2 2.1 -0.2
v -0.2 2.1 -0.4
v -0.2 2.1 -0.7
v -0.2 2.3 0.8
v -0.2 2.3 -0.8
v -0.2 2.4 0.7
v -0.2 2.4 -0.7
v -0.2 3.1 0.7
v -0.2 3.1 -0.7
v -0.2 3.2 0.8
v -0.2 3.2 -0.8
v -0.2 3.3 0.7
v -0.2 3.3 -0.7
v -0.2 3.4 0.5
v -0.2 3.4 0.4
v -0.2 3.4 0.3
v -0.2 3.4 0.2
v -0.2 3.4 0.1
v -0.2 3.4 0
v -0.2 3.4 -0.1
v -0.2 3.4 -0.2
v -0.2 3.4 -0.3
v -0.2 3.4 -0.4
v -0.2 3.4 -0.5
v -0.2 3.4 -0.6
v -0.2 3.5 0.5
v -0.2 3.5 0.4
v -0.2 3.5 0.3
v -0.2 3.5 0.2
v -0.2 3.5 0.1
v -0.2 3.5 0
v -0.2 3.5 -0.1
v -0.2 3.5 -0.2
v -0.2 3.5 -0.3
v -0.2 3.5 -0.4
v -0.2 3.5 -0.5
v -0.2 3.5 -0.6
v -0.2 3.6 0.5
v -0.2 3.6 0.4
v -0.2 3.6 0.3
v -0.2 3.6 0.2
v -0.2 3.6 0.1
v -0.2 3.6 0
v -0.2 3.6 -0.1
v -0.2 3.6 -0.2
v -0.2 3.6 -0.3
v -0.2 3.6 -0.4
v -0.2 3.6 -0.5
v -0.2 3.6 -0.6
v -0.2 3.7 0.5
v -0.2 3.7 0.4
v -0.2 3.7 0.3
v -0.2 3.7 0.2
v -0.2 3.7 0.1
v -0.2 3.7 0
v -0.2 3.7 -0.1
v -0.2 3.7 -0.2
v -0.2 3.7 -0.3
v -0.2 3.7 -0.4
v -0.2 3.7 -0.5
v -0.2 3.7 -0.6
v -0.2 3.8 0.5
v -0.2 3.8 0.4
v -0.2 3.8 0.3
v -0.2 3.8 0.2
v -0.2 3.8 0.1
v -0.2 3.8 0
v -0.2 3.8 -0.1
v -0.2 3.8 -0.2
v -0.2 3.8 -0.3
v -0.2 3.8 -0.4
v -0.2 3.8 -0.5
v -0.2 3.8 -0.6
v -0.2 3.9 0.5
v -0.2 3.9 0.4
v -0.2 3.9 0.3
v -0.2 3.9 0.2
v -0.2 3.9 0.1
v -0.2 3.9 0
v -0.2 3.9 -0.1
v -0.2 3.9 -0.2
v -0.2 3.9 -0.3
v -0.2 3.9 -0.4
v -0.2 3.9 -0.5
v -0.2 3.9 -0.6
v -0.2 4 0.7
v -0.2 4 -0.7
v -0.2 4.1 0.8
v -0.2 4.1 -0.8
v -0.2 4.2 0.7
v -0.2 4.2 -0.7
v -0.2 5.1 0.7
v -0.2 5.1 -0.7
v -0.2 5.2 0.8
v -0.2 5.2 -0.8
v -0.0999999 0 1
v -0.0999999 0 -1
v -0.0999999 0.1 0.9
v -0.0999999 0.1 -0.9
v -0.0999999 1.8 0.7
v -0.0999999 1.8 0.4
v -0.0999999 1.8 0.2
v -0.0999999 1.8 0.1
v -0.0999999 1.8 -0.1
v -0.0999999 1.8 -0.2
v -0.0999999 1.8 -0.4
v -0.0999999 1.8 -0.7
v -0.0999999 2.1 0.7
v -0.0999999 2.1 0.4
v -0.0999999 2.1 0.2
v -0.0999999 2.1 0.1
v -0.0999999 2.1 -0.1
v -0.0999999 2.1 -0.2
v -0.0999999 2.1 -0.4
v -0.0999999 2.1 -0.7
v -0.0999999 2.3 0.8
v -0.0999999 2.3 -0.8
v -0.0999999 2.4 0.7
v -0.0999999 2.4 -0.7
v -0.0999999 2.5 0.7
v -0.0999999 2.5 0.6
v -0.0999999 2.5 0.4
v -0.0999999 2.5 0
v -0.0999999 2.5 -0.1
v -0.0999999 2.5 -0.4
v -0.0999999 2.6 0.7
v -0.0999999 2.6 0.6
v -0.0999999 2.6 0.2
v -0.0999999 2.6 0
v -0.0999999 2.6 -0.1
v -0.0999999 2.6 -0.2
v -0.0999999 2.6 -0.5
v -0.0999999 2.6 -0.7
v -0.0999999 2.7 0.7
v -0.0999999 2.7 0.6
v -0.0999999 2.7 0.3
v -0.0999999 2.7 0.2
v -0.0999999 2.7 -0.2
v -0.0999999 2.7 -0.3
v -0.0999999 2.7 -0.6
v -0.0999999 2.7 -0.7
v -0.0999999 2.8 0.6
v -0.0999999 2.8 0.4
v -0.0999999 2.8 0.3
v -0.0999999 2.8 0.2
v -0.0999999 2.8 0
v -0.0999999 2.8 -0.3
v -0.0999999 2.8 -0.4
v -0.0999999 2.8 -0.5
v -0.0999999 2.9 0.7
v -0.0999999 2.9 0.4
v -0.0999999 2.9 -0.2
v -0.0999999 2.9 -0.4
v -0.0999999 3 0.7
v -0.0999999 3 0.6
v -0.0999999 3 0.4
v -0.0999999 3 0.2
v -0.0999999 3 0
v -0.0999999 3 -0.2
v -0.0999999 3 -0.4
v -0.0999999 3 -0.6
v -0.0999999 3 -0.7
v -0.0999999 3.1 0.7
v -0.0999999 3.1 0.6
v -0.0999999 3.1 -0.6
v -0.0999999 3.1 -0.7
v -0.0999999 3.2 0.8
v -0.0999999 3.2 -0.8
v -0.0999999 3.3 0.7
v -0.0999999 3.3 -0.7
v -0.0999999 4 0.7
v -0.0999999 4 -0.7
v -0.0999999 4.1 0.8
v -0.0999999 4.1 -0.8
v -0.0999999 4.2 0.7
v -0.0999999 4.2 -0.7
v -0.0999999 4.3 0.6
v -0.0999999 4.3 0.4
v -0.0999999 4.3 0.3
v -0.0999999 4.3 -0.2
v -0.0999999 4.4 0.6
v -0.0999999 4.4 0.4
v -0.0999999 4.4 0.3
v -0.0999999 4.4 -0.2
v -0.0999999 4.5 0.6
v -0.0999999 4.5 0.3
v -0.0999999 4.5 0.2
v -0.0999999 4.5 -0.2
v -0.0999999 4.6 0.6
v -0.0999999 4.6 0.3
v -0.0999999 4.6 0.2
v -0.0999999 4.6 -0.2
v -0.0999999 4.6 -0.4
v -0.0999999 4.6 -0.6
v -0.0999999 4.7 0.6
v -0.0999999 4.7 0.4
v -0.0999999 4.7 0.3
v -0.0999999 4.7 -0.1
v -0.0999999 4.7 -0.3
v -0.0999999 4.7 -0.4
v -0.0999999 4.7 -0.6
v -0.0999999 4.7 -0.7
v -0.0999999 4.8 0.6
v -0.0999999 4.8 0.4
v -0.0999999 4.8 0.3
v -0.0999999 4.8 -0.1
v -0.0999999 4.9 0.4
v -0.0999999 4.9 -0.2
v -0.0999999 4.9 -0.3
v -0.0999999 4.9 -0.4
v -0.0999999 4.9 -0.6
v -0.0999999 4.9 -0.7
v -0.0999999 5 0.4
v -0.0999999 5 -0.2
v -0.0999999 5 -0.4
v -0.0999999 5 -0.6
v -0.0999999 5.1 0.7
v -0.0999999 5.1 -0.7
v -0.0999999 5.2 0.8
v -0.0999999 5.2 -0.8
v -0.0999999 5.5 0.9
v -0.0999999 5.5 -0.9
v -0.0999999 5.6 1
v -0.0999999 5.6 -1
v 0.2 3.2 0.8
v 0.2 3.2 0.7
v 0.2 3.2 -0.7
v 0.2 3.2 -0.8
v 0.2 3.3 0.8
v 0.2 3.3 -0.8
v 0.3 5.6 1
v 0.3 5.6 0.9
v 0.3 5.6 -0.9
v 0.3 5.6 -1
v 0.3 5.7 1
v 0.3 5.7 0.9
v 0.3 5.7 -0.9
v 0.3 5.7 -1
v 0.7 5.7 1
v 0.7 5.7 0.9
v 0.7 5.7 -0.9
v 0.7 5.7 -1
v 0.7 5.8 1
v 0.7 5.8 0.9
v 0.7 5.8 -0.9
v 0.7 5.8 -1
v 1.1 5.8 1
v 1.1 5.8 0.9
v 1.1 5.8 -0.9
v 1.1 5.8 -1
v 1.1 5.9 1
v 1.1 5.9 0.9
v 1.1 5.9 -0.9
v 1.1 5.9 -1
v 0.1 3.2 0.8
v 0.1 3.2 0.7
v 0.1 3.2 -0.7
v 0.1 3.2 -0.8
v 0.1 3.3 0.8
v 0.1 3.3 -0.8
v 1.6 0 1
v 1.6 0 -1
v 1.6 0.1 0.9
v 1.6 0.1 -0.9
v 1.6 5.8 0.9
v 1.6 5.8 -0.9
v 1.6 5.9 1
v 1.6 5.9 -1
v -0.0999999 0 1
v -0.0999999 5.6 1
v 5.96046e-08 0.1 1
v 5.96046e-08 5.5 1
v 0.3 5.6 1
v 0.3 5.7 1
v 0.4 5.5 1
v 0.4 5.6 1
v 0.7 5.7 1
v 0.7 5.8 1
v 0.8 5.6 1
v 0.8 5.7 1
v 1.1 5.8 1
v 1.1 5.9 1
v 1.2 5.7 1
v 1.2 5.8 1
v 1.5 0.1 1
v 1.5 5.8 1
v 1.6 0 1
v 1.6 5.9 1
v -0.2 2.3 0.8
v -0.2 3.2 0.8
v -0.2 4.1 0.8
v -0.2 5.2 0.8
v -0.0999999 2.3 0.8
v -0.0999999 3.2 0.8
v -0.0999999 4.1 0.8
v -0.0999999 5.2 0.8
v -0.2 1.8 0.7
v -0.2 2.1 0.7
v -0.2 3.3 0.7
v -0.2 4 0.7
v -0.0999999 1.8 0.7
v -0.0999999 2.1 0.7
v -0.0999999 3.3 0.7
v -0.0999999 4 0.7
v -0.2 1.8 0.2
v -0.2 2.1 0.2
v -0.0999999 1.8 0.2
v -0.0999999 2.1 0.2
v -0.2 1.8 -0.1
v -0.2 2.1 -0.1
v -0.0999999 1.8 -0.1
v -0.0999999 2.1 -0.1
v -0.2 1.8 -0.4
v -0.2 2.1 -0.4
v -0.0999999 1.8 -0.4
v -0.0999999 2.1 -0.4
v -0.2 2.4 -0.7
v -0.2 3.1 -0.7
v -0.2 4.2 -0.7
v -0.2 5.1 -0.7
v -0.0999999 2.4 -0.7
v -0.0999999 2.6 -0.7
v -0.0999999 2.7 -0.7
v -0.0999999 3 -0.7
v -0.0999999 3.1 -0.7
v -0.0999999 4.2 -0.7
v -0.0999999 4.7 -0.7
v -0.0999999 4.9 -0.7
v -0.0999999 5.1 -0.7
v 0.1 3.2 -0.8
v 0.1 3.3 -0.8
v 0.2 3.2 -0.8
v 0.2 3.3 -0.8
v 0.1 3.2 0.8
v 0.1 3.3 0.8
v 0.2 3.2 0.8
v 0.2 3.3 0.8
v -0.2 2.4 0.7
v -0.2 3.1 0.7
v -0.2 4.2 0.7
v -0.2 5.1 0.7
v -0.0999999 2.4 0.7
v -0.0999999 2.5 0.7
v -0.0999999 2.6 0.7
v -0.0999999 2.7 0.7
v -0.0999999 2.9 0.7
v -0.0999999 3 0.7
v -0.0999999 3.1 0.7
v -0.0999999 4.2 0.7
v -0.0999999 5.1 0.7
v -0.2 1.8 0.4
v -0.2 2.1 0.4
v -0.0999999 1.8 0.4
v -0.0999999 2.1 0.4
v -0.2 1.8 0.1
v -0.2 2.1 0.1
v -0.0999999 1.8 0.1
v -0.0999999 2.1 0.1
v -0.2 1.8 -0.2
v -0.2 2.1 -0.2
v -0.0999999 1.8 -0.2
v -0.0999999 2.1 -0.2
v -0.2 1.8 -0.7
v -0.2 2.1 -0.7
v -0.2 3.3 -0.7
v -0.2 4 -0.7
v -0.0999999 1.8 -0.7
v -0.0999999 2.1 -0.7
v -0.0999999 3.3 -0.7
v -0.0999999 4 -0.7
v -0.2 2.3 -0.8
v -0.2 3.2 -0.8
v -0.2 4.1 -0.8
v -0.2 5.2 -0.8
v -0.0999999 2.3 -0.8
v -0.0999999 3.2 -0.8
v -0.0999999 4.1 -0.8
v -0.0999999 5.2 -0.8
v -0.0999999 0 -1
v -0.0999999 5.6 -1
v 5.96046e-08 0.1 -1
v 5.96046e-08 5.5 -1
v 0.3 5.6 -1
v 0.3 5.7 -1
v 0.4 5.5 -1
v 0.4 5.6 -1
v 0.7 5.7 -1
v 0.7 5.8 -1
v 0.8 5.6 -1
v 0.8 5.7 -1
v 1.1 5.8 -1
v 1.1 5.9 -1
v 1.2 5.7 -1
v 1.2 5.8 -1
v 1.5 0.1 -1
v 1.5 5.8 -1
v 1.6 0 -1
v 1.6 5.9 -1
v -0.0999999 0 1
v 1.6 0 1
v 5.96046e-08 0 0.9
v 1.5 0 0.9
v 5.96046e-08 0 -0.9
v 1.5 0 -0.9
v -0.0999999 0 -1
v 1.6 0 -1
v -0.2 1.8 0.7
v -0.0999999 1.8 0.7
v -0.2 1.8 0.4
v -0.0999999 1.8 0.4
v -0.2 1.8 0.2
v -0.0999999 1.8 0.2
v -0.2 1.8 0.1
v -0.0999999 1.8 0.1
v -0.2 1.8 -0.1
v -0.0999999 1.8 -0.1
v -0.2 1.8 -0.2
v -0.0999999 1.8 -0.2
v -0.2 1.8 -0.4
v -0.0999999 1.8 -0.4
v -0.2 1.8 -0.7
v -0.0999999 1.8 -0.7
v -0.2 2.3 0.8
v -0.0999999 2.3 0.8
v -0.2 2.3 -0.8
v -0.0999999 2.3 -0.8
v -0.2 3.1 0.7
v -0.0999999 3.1 0.7
v -0.0999999 3.1 0.6
v -0.0999999 3.1 -0.6
v -0.2 3.1 -0.7
v -0.0999999 3.1 -0.7
v 0.1 3.3 0.8
v 0.2 3.3 0.8
v -0.2 3.3 0.7
v -0.0999999 3.3 0.7
v -0.2 3.3 -0.7
v -0.0999999 3.3 -0.7
v 0.1 3.3 -0.8
v 0.2 3.3 -0.8
v -0.2 4.1 0.8
v -0.0999999 4.1 0.8
v -0.2 4.1 -0.8
v -0.0999999 4.1 -0.8
v -0.2 5.1 0.7
v -0.0999999 5.1 0.7
v -0.2 5.1 -0.7
v -0.0999999 5.1 -0.7
v -0.2 2.1 0.7
v -0.0999999 2.1 0.7
v -0.2 2.1 0.4
v -0.0999999 2.1 0.4
v -0.2 2.1 0.2
v -0.0999999 2.1 0.2
v -0.2 2.1 0.1
v -0.0999999 2.1 0.1
v -0.2 2.1 -0.1
v -0.0999999 2.1 -0.1
v -0.2 2.1 -0.2
v -0.0999999 2.1 -0.2
v -0.2 2.1 -0.4
v -0.0999999 2.1 -0.4
v -0.2 2.1 -0.7
v -0.0999999 2.1 -0.7
v -0.2 2.4 0.7
v -0.0999999 2.4 0.7
v -0.2 2.4 -0.7
v -0.0999999 2.4 -0.7
v -0.2 3.2 0.8
v -0.0999999 3.2 0.8
v 0.1 3.2 0.8
v 0.2 3.2 0.8
v 0.1 3.2 0.7
v 0.2 3.2 0.7
v 0.1 3.2 -0.7
v 0.2 3.2 -0.7
v -0.2 3.2 -0.8
v -0.0999999 3.2 -0.8
v 0.1 3.2 -0.8
v 0.2 3.2 -0.8
v -0.2 4 0.7
v -0.0999999 4 0.7
v -0.2 4 -0.7
v -0.0999999 4 -0.7
v -0.2 4.2 0.7
v -0.0999999 4.2 0.7
v -0.2 4.2 -0.7
v -0.0999999 4.2 -0.7
v -0.2 5.2 0.8
v -0.0999999 5.2 0.8
v -0.2 5.2 -0.8
v -0.0999999 5.2 -0.8
v -0.0999999 5.6 1
v 0.3 5.6 1
v 5.96046e-08 5.6 0.9
v 0.3 5.6 0.9
v 5.96046e-08 5.6 -0.9
v 0.3 5.6 -0.9
v -0.0999999 5.6 -1
v 0.3 5.6 -1
v 0.3 5.7 1
v 0.7 5.7 1
v 0.3 5.7 0.9
v 0.7 5.7 0.9
v 0.3 5.7 -0.9
v 0.7 5.7 -0.9
v 0.3 5.7 -1
v 0.7 5.7 -1
v 0.7 5.8 1
v 1.1 5.8 1
v 0.7 5.8 0.9
v 1.1 5.8 0.9
v 0.7 5.8 -0.9
v 1.1 5.8 -0.9
v 0.7 5.8 -1
v 1.1 5.8 -1
v 1.1 5.9 1
v 1.6 5.9 1
v 1.1 5.9 0.9
v 1.5 5.9 0.9
v 1.1 5.9 -0.9
v 1.5 5.9 -0.9
v 1.1 5.9 -1
v 1.6 5.9 -1

# faces
f 9/1/1 2/1/1 1/1/1
f 10/1/1 2/1/1 9/1/1
f 11/1/1 4/1/1 3/1/1
f 12/1/1 4/1/1 11/1/1
f 13/1/1 6/1/1 5/1/1
f 14/1/1 6/1/1 13/1/1
f 15/1/1 8/1/1 7/1/1
f 16/1/1 8/1/1 15/1/1
f 19/4/1 18/4/1 17/4/1
f 20/4/1 18/4/1 19/4/1
f 21/4/1 19/4/1 17/4/1
f 22/4/1 18/4/1 20/4/1
f 23/4/1 21/4/1 17/4/1
f 23/4/1 22/4/1 21/4/1
f 24/4/1 18/4/1 22/4/1
f 24/4/1 22/4/1 23/4/1
f 27/4/1 26/4/1 25/4/1
f 28/4/1 26/4/1 27/4/1
f 29/4/1 26/4/1 28/4/1
f 30/4/1 26/4/1 29/4/1
f 31/4/1 26/4/1 30/4/1
f 32/4/1 26/4/1 31/4/1
f 33/4/1 26/4/1 32/4/1
f 34/4/1 26/4/1 33/4/1
f 35/4/1 26/4/1 34/4/1
f 36/4/1 26/4/1 35/4/1
f 37/4/1 26/4/1 36/4/1
f 38/4/1 26/4/1 37/4/1
f 39/4/1 27/4/1 25/4/1
f 39/5/1 28/5/1 27/5/1
f 40/4/1 29/4/1 28/4/1
f 40/5/1 28/5/1 39/5/1
f 41/5/1 30/5/1 29/5/1
f 41/4/1 29/4/1 40/4/1
f 42/4/1 31/4/1 30/4/1
f 42/5/1 30/5/1 41/5/1
f 43/5/1 32/5/1 31/5/1
f 43/4/1 31/4/1 42/4/1
f 44/4/1 33/4/1 32/4/1
f 44/5/1 32/5/1 43/5/1
f 45/5/1 34/5/1 33/5/1
f 45/4/1 33/4/1 44/4/1
f 46/4/1 35/4/1 34/4/1
f 46/5/1 34/5/1 45/5/1
f 47/5/1 36/5/1 35/5/1
f 47/4/1 35/4/1 46/4/1
f 48/4/1 37/4/1 36/4/1
f 48/5/1 36/5/1 47/5/1
f 49/5/1 38/5/1 37/5/1
f 49/4/1 37/4/1 48/4/1
f 50/4/1 26/4/1 38/4/1
f 50/5/1 38/5/1 49/5/1
f 51/4/1 49/4/1 48/4/1
f 51/4/1 48/4/1 47/4/1
f 51/4/1 50/4/1 49/4/1
f 51/4/1 47/4/1 46/4/1
f 51/4/1 46/4/1 45/4/1
f 51/4/1 45/4/1 44/4/1
f 51/4/1 44/4/1 43/4/1
f 51/4/1 43/4/1 42/4/1
f 51/4/1 42/4/1 41/4/1
f 51/4/1 41/4/1 40/4/1
f 51/4/1 40/4/1 39/4/1
f 51/4/1 39/4/1 25/4/1
f 52/4/1 50/4/1 51/4/1
f 53/4/1 50/4/1 52/4/1
f 54/4/1 50/4/1 53/4/1
f 55/4/1 50/4/1 54/4/1
f 56/4/1 50/4/1 55/4/1
f 57/4/1 50/4/1 56/4/1
f 58/4/1 50/4/1 57/4/1
f 59/4/1 50/4/1 58/4/1
f 60/4/1 50/4/1 59/4/1
f 61/4/1 50/4/1 60/4/1
f 62/4/1 26/4/1 50/4/1
f 62/4/1 50/4/1 61/4/1
f 63/4/1 51/4/1 25/4/1
f 63/5/1 52/5/1 51/5/1
f 64/4/1 53/4/1 52/4/1
f 64/5/1 52/5/1 63/5/1
f 65/5/1 54/5/1 53/5/1
f 65/4/1 53/4/1 64/4/1
f 66/4/1 55/4/1 54/4/1
f 66/5/1 54/5/1 65/5/1
f 67/5/1 56/5/1 55/5/1
f 67/4/1 55/4/1 66/4/1
f 68/4/1 57/4/1 56/4/1
f 68/5/1 56/5/1 67/5/1
f 69/5/1 58/5/1 57/5/1
f 69/4/1 57/4/1 68/4/1
f 70/4/1 59/4/1 58/4/1
f 70/5/1 58/5/1 69/5/1
f 71/5/1 60/5/1 59/5/1
f 71/4/1 59/4/1 70/4/1
f 72/4/1 61/4/1 60/4/1
f 72/5/1 60/5/1 71/5/1
f 73/5/1 62/5/1 61/5/1
f 73/4/1 61/4/1 72/4/1
f 74/4/1 26/4/1 62/4/1
f 74/5/1 62/5/1 73/5/1
f 75/4/1 71/4/1 70/4/1
f 75/4/1 73/4/1 72/4/1
f 75/4/1 74/4/1 73/4/1
f 75/4/1 70/4/1 69/4/1
f 75/4/1 69/4/1 68/4/1
f 75/4/1 68/4/1 67/4/1
f 75/4/1 67/4/1 66/4/1
f 75/4/1 66/4/1 65/4/1
f 75/4/1 65/4/1 64/4/1
f 75/4/1 64/4/1 63/4/1
f 75/4/1 63/4/1 25/4/1
f 75/4/1 72/4/1 71/4/1
f 76/4/1 74/4/1 75/4/1
f 77/4/1 74/4/1 76/4/1
f 78/4/1 74/4/1 77/4/1
f 79/4/1 74/4/1 78/4/1
f 80/4/1 74/4/1 79/4/1
f 81/4/1 74/4/1 80/4/1
f 82/4/1 74/4/1 81/4/1
f 83/4/1 74/4/1 82/4/1
f 84/4/1 74/4/1 83/4/1
f 85/4/1 74/4/1 84/4/1
f 86/4/1 26/4/1 74/4/1
f 86/4/1 74/4/1 85/4/1
f 87/4/1 75/4/1 25/4/1
f 87/5/1 76/5/1 75/5/1
f 88/4/1 77/4/1 76/4/1
f 88/5/1 76/5/1 87/5/1
f 89/5/1 78/5/1 77/5/1
f 89/4/1 77/4/1 88/4/1
f 90/4/1 79/4/1 78/4/1
f 90/5/1 78/5/1 89/5/1
f 91/5/1 80/5/1 79/5/1
f 91/4/1 79/4/1 90/4/1
f 92/4/1 81/4/1 80/4/1
f 92/5/1 80/5/1 91/5/1
f 93/5/1 82/5/1 81/5/1
f 93/4/1 81/4/1 92/4/1
f 94/4/1 83/4/1 82/4/1
f 94/5/1 82/5/1 93/5/1
f 95/5/1 84/5/1 83/5/1
f 95/4/1 83/4/1 94/4/1
f 96/4/1 85/4/1 84/4/1
f 96/5/1 84/5/1 95/5/1
f 97/5/1 86/5/1 85/5/1
f 97/4/1 85/4/1 96/4/1
f 98/4/1 26/4/1 86/4/1
f 98/5/1 86/5/1 97/5/1
f 99/4/1 95/4/1 94/4/1
f 99/4/1 97/4/1 96/4/1
f 99/4/1 98/4/1 97/4/1
f 99/4/1 94/4/1 93/4/1
f 99/4/1 93/4/1 92/4/1
f 99/4/1 92/4/1 91/4/1
f 99/4/1 91/4/1 90/4/1
f 99/4/1 90/4/1 89/4/1
f 99/4/1 89/4/1 88/4/1
f 99/4/1 88/4/1 87/4/1
f 99/4/1 87/4/1 25/4/1
f 99/4/1 96/4/1 95/4/1
f 100/4/1 26/4/1 98/4/1
f 100/4/1 98/4/1 99/4/1
f 103/4/1 102/4/1 101/4/1
f 104/4/1 102/4/1 103/4/1
f 105/4/1 103/4/1 101/4/1
f 106/4/1 102/4/1 104/4/1
f 107/4/1 105/4/1 101/4/1
f 107/4/1 106/4/1 105/4/1
f 108/4/1 102/4/1 106/4/1
f 108/4/1 106/4/1 107/4/1
f 111/3/1 110/3/1 109/3/1
f 112/3/1 110/3/1 111/3/1
f 113/2/1 112/2/1 111/2/1
f 114/2/1 112/2/1 113/2/1
f 115/2/1 112/2/1 114/2/1
f 116/2/1 112/2/1 115/2/1
f 117/2/1 112/2/1 116/2/1
f 118/2/1 112/2/1 117/2/1
f 119/2/1 112/2/1 118/2/1
f 120/2/1 112/2/1 119/2/1
f 121/2/1 113/2/1 111/2/1
f 122/2/1 115/2/1 114/2/1
f 123/2/1 115/2/1 122/2/1
f 124/2/1 117/2/1 116/2/1
f 125/2/1 117/2/1 124/2/1
f 126/2/1 119/2/1 118/2/1
f 127/2/1 119/2/1 126/2/1
f 128/2/1 112/2/1 120/2/1
f 129/2/1 127/2/1 126/2/1
f 129/2/1 128/2/1 127/2/1
f 129/2/1 125/2/1 124/2/1
f 129/2/1 121/2/1 111/2/1
f 129/2/1 126/2/1 125/2/1
f 129/2/1 123/2/1 122/2/1
f 129/2/1 124/2/1 123/2/1
f 129/2/1 122/2/1 121/2/1
f 130/2/1 112/2/1 128/2/1
f 130/2/1 128/2/1 129/2/1
f 133/4/1 132/4/1 131/4/1
f 134/4/1 132/4/1 133/4/1
f 135/4/1 132/4/1 134/4/1
f 136/4/1 132/4/1 135/4/1
f 137/4/1 132/4/1 136/4/1
f 138/4/1 132/4/1 137/4/1
f 139/5/1 134/5/1 133/5/1
f 140/4/1 135/4/1 134/4/1
f 140/5/1 134/5/1 139/5/1
f 141/5/1 136/5/1 135/5/1
f 142/1/1 137/1/1 136/1/1
f 142/5/1 136/5/1 141/5/1
f 143/5/1 138/5/1 137/5/1
f 143/1/1 137/1/1 142/1/1
f 144/5/1 138/5/1 143/5/1
f 145/4/1 132/4/1 138/4/1
f 146/4/1 132/4/1 145/4/1
f 147/4/1 140/4/1 139/4/1
f 148/4/1 135/4/1 140/4/1
f 148/4/1 140/4/1 147/4/1
f 149/5/1 141/5/1 135/5/1
f 150/4/1 142/4/1 141/4/1
f 150/5/1 141/5/1 149/5/1
f 150/4/1 143/4/1 142/4/1
f 150/4/1 144/4/1 143/4/1
f 151/5/1 138/5/1 144/5/1
f 151/4/1 144/4/1 150/4/1
f 152/5/1 138/5/1 151/5/1
f 153/5/1 146/5/1 145/5/1
f 154/5/1 146/5/1 153/5/1
f 155/4/1 135/4/1 148/4/1
f 155/5/1 148/5/1 147/5/1
f 156/5/1 149/5/1 135/5/1
f 156/4/1 135/4/1 155/4/1
f 157/4/1 150/4/1 149/4/1
f 157/5/1 149/5/1 156/5/1
f 157/4/1 151/4/1 150/4/1
f 157/4/1 152/4/1 151/4/1
f 158/4/1 152/4/1 157/4/1
f 159/4/1 152/4/1 158/4/1
f 160/5/1 138/5/1 152/5/1
f 160/4/1 152/4/1 159/4/1
f 161/4/1 145/4/1 138/4/1
f 161/5/1 138/5/1 160/5/1
f 162/5/1 153/5/1 145/5/1
f 162/4/1 145/4/1 161/4/1
f 163/5/1 156/5/1 155/5/1
f 163/5/1 155/5/1 147/5/1
f 163/5/1 157/5/1 156/5/1
f 163/5/1 158/5/1 157/5/1
f 164/5/1 158/5/1 163/5/1
f 165/5/1 162/5/1 161/5/1
f 165/5/1 160/5/1 159/5/1
f 165/5/1 161/5/1 160/5/1
f 166/5/1 162/5/1 165/5/1
f 167/4/1 164/4/1 163/4/1
f 168/4/1 164/4/1 167/4/1
f 169/5/1 158/5/1 164/5/1
f 169/4/1 164/4/1 168/4/1
f 170/4/1 159/4/1 158/4/1
f 170/5/1 158/5/1 169/5/1
f 171/5/1 165/5/1 159/5/1
f 171/4/1 159/4/1 170/4/1
f 172/4/1 166/4/1 165/4/1
f 172/5/1 165/5/1 171/5/1
f 173/5/1 162/5/1 166/5/1
f 173/4/1 166/4/1 172/4/1
f 174/5/1 153/5/1 162/5/1
f 174/5/1 162/5/1 173/5/1
f 174/4/1 154/4/1 153/4/1
f 175/4/1 154/4/1 174/4/1
f 176/5/1 168/5/1 167/5/1
f 177/4/1 173/4/1 172/4/1
f 177/5/1 168/5/1 176/5/1
f 177/4/1 169/4/1 168/4/1
f 177/4/1 172/4/1 171/4/1
f 177/4/1 174/4/1 173/4/1
f 177/4/1 171/4/1 170/4/1
f 177/4/1 170/4/1 169/4/1
f 178/5/1 175/5/1 174/5/1
f 178/4/1 174/4/1 177/4/1
f 179/5/1 175/5/1 178/5/1
f 180/2/1 129/2/1 111/2/1
f 181/2/1 112/2/1 130/2/1
f 182/2/1 181/2/1 180/2/1
f 183/2/1 181/2/1 182/2/1
f 184/2/1 182/2/1 180/2/1
f 185/2/1 181/2/1 183/2/1
f 186/2/1 180/2/1 111/2/1
f 186/2/1 185/2/1 184/2/1
f 186/2/1 184/2/1 180/2/1
f 187/2/1 181/2/1 185/2/1
f 187/2/1 185/2/1 186/2/1
f 187/2/1 112/2/1 181/2/1
f 190/4/1 189/4/1 188/4/1
f 191/4/1 189/4/1 190/4/1
f 192/4/1 189/4/1 191/4/1
f 193/4/1 189/4/1 192/4/1
f 194/4/1 190/4/1 188/4/1
f 194/5/1 191/5/1 190/5/1
f 195/4/1 192/4/1 191/4/1
f 195/5/1 191/5/1 194/5/1
f 196/5/1 193/5/1 192/5/1
f 196/4/1 192/4/1 195/4/1
f 197/4/1 189/4/1 193/4/1
f 197/5/1 193/5/1 196/5/1
f 198/4/1 196/4/1 195/4/1
f 198/4/1 195/4/1 194/4/1
f 198/4/1 197/4/1 196/4/1
f 198/4/1 194/4/1 188/4/1
f 199/4/1 197/4/1 198/4/1
f 200/4/1 197/4/1 199/4/1
f 201/4/1 189/4/1 197/4/1
f 201/4/1 197/4/1 200/4/1
f 202/4/1 198/4/1 188/4/1
f 202/5/1 199/5/1 198/5/1
f 203/4/1 200/4/1 199/4/1
f 203/5/1 199/5/1 202/5/1
f 204/5/1 201/5/1 200/5/1
f 204/4/1 200/4/1 203/4/1
f 205/4/1 189/4/1 201/4/1
f 205/5/1 201/5/1 204/5/1
f 206/4/1 189/4/1 205/4/1
f 207/4/1 189/4/1 206/4/1
f 208/4/1 202/4/1 188/4/1
f 208/4/1 204/4/1 203/4/1
f 208/4/1 203/4/1 202/4/1
f 208/4/1 206/4/1 205/4/1
f 208/4/1 205/4/1 204/4/1
f 209/4/1 206/4/1 208/4/1
f 210/4/1 206/4/1 209/4/1
f 211/4/1 206/4/1 210/4/1
f 212/4/1 206/4/1 211/4/1
f 213/5/1 207/5/1 206/5/1
f 213/4/1 206/4/1 212/4/1
f 214/4/1 189/4/1 207/4/1
f 214/5/1 207/5/1 213/5/1
f 215/4/1 189/4/1 214/4/1
f 216/4/1 208/4/1 188/4/1
f 216/5/1 209/5/1 208/5/1
f 217/4/1 210/4/1 209/4/1
f 217/5/1 209/5/1 216/5/1
f 218/5/1 211/5/1 210/5/1
f 218/4/1 210/4/1 217/4/1
f 219/4/1 212/4/1 211/4/1
f 219/5/1 211/5/1 218/5/1
f 220/4/1 218/4/1 217/4/1
f 220/4/1 217/4/1 216/4/1
f 220/4/1 219/4/1 218/4/1
f 221/4/1 212/4/1 219/4/1
f 221/4/1 219/4/1 220/4/1
f 222/5/1 213/5/1 212/5/1
f 222/4/1 212/4/1 221/4/1
f 223/1/1 214/1/1 213/1/1
f 223/5/1 213/5/1 222/5/1
f 224/5/1 215/5/1 214/5/1
f 224/1/1 214/1/1 223/1/1
f 225/5/1 215/5/1 224/5/1
f 226/5/1 221/5/1 220/5/1
f 226/4/1 220/4/1 216/4/1
f 227/4/1 223/4/1 222/4/1
f 227/5/1 221/5/1 226/5/1
f 227/4/1 222/4/1 221/4/1
f 228/5/1 224/5/1 223/5/1
f 228/4/1 223/4/1 227/4/1
f 229/4/1 225/4/1 224/4/1
f 229/5/1 224/5/1 228/5/1
f 230/4/1 228/4/1 227/4/1
f 230/4/1 226/4/1 216/4/1
f 230/4/1 229/4/1 228/4/1
f 230/4/1 227/4/1 226/4/1
f 230/4/1 216/4/1 188/4/1
f 231/4/1 225/4/1 229/4/1
f 231/4/1 229/4/1 230/4/1
f 232/2/1 186/2/1 111/2/1
f 233/2/1 112/2/1 187/2/1
f 234/3/1 111/3/1 109/3/1
f 234/2/1 233/2/1 232/2/1
f 234/2/1 232/2/1 111/2/1
f 235/2/1 112/2/1 233/2/1
f 235/2/1 233/2/1 234/2/1
f 235/3/1 110/3/1 112/3/1
f 236/3/1 234/3/1 109/3/1
f 236/3/1 235/3/1 234/3/1
f 237/3/1 110/3/1 235/3/1
f 237/3/1 235/3/1 236/3/1
f 242/2/1 239/2/1 238/2/1
f 242/2/1 241/2/1 240/2/1
f 242/2/1 240/2/1 239/2/1
f 243/2/1 241/2/1 242/2/1
f 248/3/1 245/3/1 244/3/1
f 249/2/1 246/2/1 245/2/1
f 249/3/1 245/3/1 248/3/1
f 250/3/1 247/3/1 246/3/1
f 250/2/1 246/2/1 249/2/1
f 251/3/1 247/3/1 250/3/1
f 256/3/1 253/3/1 252/3/1
f 257/2/1 254/2/1 253/2/1
f 257/3/1 253/3/1 256/3/1
f 258/3/1 255/3/1 254/3/1
f 258/2/1 254/2/1 257/2/1
f 259/3/1 255/3/1 258/3/1
f 264/3/1 261/3/1 260/3/1
f 265/2/1 262/2/1 261/2/1
f 265/3/1 261/3/1 264/3/1
f 266/3/1 263/3/1 262/3/1
f 266/2/1 262/2/1 265/2/1
f 267/3/1 263/3/1 266/3/1
f 268/2/2 269/2/2 272/2/2
f 270/2/2 271/2/2 272/2/2
f 269/2/2 270/2/2 272/2/2
f 272/2/2 271/2/2 273/2/2
f 274/3/2 275/3/2 276/3/2
f 276/3/2 275/3/2 277/3/2
f 274/3/2 276/3/2 278/3/2
f 276/2/2 277/2/2 278/2/2
f 277/3/2 275/3/2 279/3/2
f 278/2/2 277/2/2 279/2/2
f 274/3/2 278/3/2 280/3/2
f 278/3/2 279/3/2 280/3/2
f 279/3/2 275/3/2 281/3/2
f 280/3/2 279/3/2 281/3/2
f 284/3/3 283/3/3 282/3/3
f 285/3/3 283/3/3 284/3/3
f 286/3/3 283/3/3 285/3/3
f 288/2/3 285/2/3 284/2/3
f 288/3/3 287/3/3 286/3/3
f 288/3/3 286/3/3 285/3/3
f 289/3/3 287/3/3 288/3/3
f 290/3/3 287/3/3 289/3/3
f 292/2/3 289/2/3 288/2/3
f 292/3/3 291/3/3 290/3/3
f 292/3/3 290/3/3 289/3/3
f 293/3/3 291/3/3 292/3/3
f 294/3/3 291/3/3 293/3/3
f 296/2/3 293/2/3 292/2/3
f 296/3/3 295/3/3 294/3/3
f 296/3/3 294/3/3 293/3/3
f 297/3/3 295/3/3 296/3/3
f 298/3/3 284/3/3 282/3/3
f 298/2/3 288/2/3 284/2/3
f 298/2/3 297/2/3 296/2/3
f 298/2/3 296/2/3 292/2/3
f 298/2/3 292/2/3 288/2/3
f 299/3/3 295/3/3 297/3/3
f 299/2/3 297/2/3 298/2/3
f 300/3/3 298/3/3 282/3/3
f 300/3/3 299/3/3 298/3/3
f 301/3/3 295/3/3 299/3/3
f 301/3/3 299/3/3 300/3/3
f 306/4/3 303/4/3 302/4/3
f 307/4/3 303/4/3 306/4/3
f 308/4/3 305/4/3 304/4/3
f 309/4/3 305/4/3 308/4/3
f 314/1/3 311/1/3 310/1/3
f 315/1/3 311/1/3 314/1/3
f 316/4/3 313/4/3 312/4/3
f 317/4/3 313/4/3 316/4/3
f 320/1/3 319/1/3 318/1/3
f 321/1/3 319/1/3 320/1/3
f 324/1/3 323/1/3 322/1/3
f 325/1/3 323/1/3 324/1/3
f 328/1/3 327/1/3 326/1/3
f 329/1/3 327/1/3 328/1/3
f 334/4/3 331/4/3 330/4/3
f 335/4/3 331/4/3 334/4/3
f 336/4/3 331/4/3 335/4/3
f 337/4/3 331/4/3 336/4/3
f 338/4/3 331/4/3 337/4/3
f 339/4/3 333/4/3 332/4/3
f 340/4/3 333/4/3 339/4/3
f 341/4/3 333/4/3 340/4/3
f 342/4/3 333/4/3 341/4/3
f 345/2/3 344/2/3 343/2/3
f 346/2/3 344/2/3 345/2/3
f 347/2/4 348/2/4 349/2/4
f 349/2/4 348/2/4 350/2/4
f 351/4/4 352/4/4 355/4/4
f 355/4/4 352/4/4 356/4/4
f 356/4/4 352/4/4 357/4/4
f 357/4/4 352/4/4 358/4/4
f 358/4/4 352/4/4 359/4/4
f 359/4/4 352/4/4 360/4/4
f 360/4/4 352/4/4 361/4/4
f 353/4/4 354/4/4 362/4/4
f 362/4/4 354/4/4 363/4/4
f 364/1/4 365/1/4 366/1/4
f 366/1/4 365/1/4 367/1/4
f 368/1/4 369/1/4 370/1/4
f 370/1/4 369/1/4 371/1/4
f 372/1/4 373/1/4 374/1/4
f 374/1/4 373/1/4 375/1/4
f 376/1/4 377/1/4 380/1/4
f 380/1/4 377/1/4 381/1/4
f 378/4/4 379/4/4 382/4/4
f 382/4/4 379/4/4 383/4/4
f 384/4/4 385/4/4 388/4/4
f 388/4/4 385/4/4 389/4/4
f 386/4/4 387/4/4 390/4/4
f 390/4/4 387/4/4 391/4/4
f 392/3/4 393/3/4 394/3/4
f 394/3/4 393/3/4 395/3/4
f 395/3/4 393/3/4 396/3/4
f 394/2/4 395/2/4 398/2/4
f 396/3/4 397/3/4 398/3/4
f 395/3/4 396/3/4 398/3/4
f 398/3/4 397/3/4 399/3/4
f 399/3/4 397/3/4 400/3/4
f 398/2/4 399/2/4 402/2/4
f 400/3/4 401/3/4 402/3/4
f 399/3/4 400/3/4 402/3/4
f 402/3/4 401/3/4 403/3/4
f 403/3/4 401/3/4 404/3/4
f 402/2/4 403/2/4 406/2/4
f 404/3/4 405/3/4 406/3/4
f 403/3/4 404/3/4 406/3/4
f 406/3/4 405/3/4 407/3/4
f 392/3/4 394/3/4 408/3/4
f 394/2/4 398/2/4 408/2/4
f 406/2/4 407/2/4 408/2/4
f 402/2/4 406/2/4 408/2/4
f 398/2/4 402/2/4 408/2/4
f 407/3/4 405/3/4 409/3/4
f 408/2/4 407/2/4 409/2/4
f 392/3/4 408/3/4 410/3/4
f 408/3/4 409/3/4 410/3/4
f 409/3/4 405/3/4 411/3/4
f 410/3/4 409/3/4 411/3/4
f 414/3/5 413/3/5 412/3/5
f 415/3/5 413/3/5 414/3/5
f 416/3/5 414/3/5 412/3/5
f 416/2/5 415/2/5 414/2/5
f 417/3/5 413/3/5 415/3/5
f 417/2/5 415/2/5 416/2/5
f 418/3/5 416/3/5 412/3/5
f 418/3/5 417/3/5 416/3/5
f 419/3/5 413/3/5 417/3/5
f 419/3/5 417/3/5 418/3/5
f 422/1/5 421/1/5 420/1/5
f 423/1/5 421/1/5 422/1/5
f 426/1/5 425/1/5 424/1/5
f 427/1/5 425/1/5 426/1/5
f 430/1/5 429/1/5 428/1/5
f 431/1/5 429/1/5 430/1/5
f 434/1/5 433/1/5 432/1/5
f 435/1/5 433/1/5 434/1/5
f 438/4/5 437/4/5 436/4/5
f 439/4/5 437/4/5 438/4/5
f 442/4/5 441/4/5 440/4/5
f 443/4/5 442/4/5 440/4/5
f 444/4/5 443/4/5 440/4/5
f 445/4/5 443/4/5 444/4/5
f 450/4/5 449/4/5 448/4/5
f 451/4/5 449/4/5 450/4/5
f 452/2/5 447/2/5 446/2/5
f 453/2/5 447/2/5 452/2/5
f 456/4/5 455/4/5 454/4/5
f 457/4/5 455/4/5 456/4/5
f 460/4/5 459/4/5 458/4/5
f 461/4/5 459/4/5 460/4/5
f 462/1/6 463/1/6 464/1/6
f 464/1/6 463/1/6 465/1/6
f 466/1/6 467/1/6 468/1/6
f 468/1/6 467/1/6 469/1/6
f 470/1/6 471/1/6 472/1/6
f 472/1/6 471/1/6 473/1/6
f 474/1/6 475/1/6 476/1/6
f 476/1/6 475/1/6 477/1/6
f 478/4/6 479/4/6 480/4/6
f 480/4/6 479/4/6 481/4/6
f 484/2/6 485/2/6 486/2/6
f 486/2/6 485/2/6 487/2/6
f 486/4/6 487/4/6 488/4/6
f 488/4/6 487/4/6 489/4/6
f 482/4/6 483/4/6 490/4/6
f 490/4/6 483/4/6 491/4/6
f 488/2/6 489/2/6 492/2/6
f 492/2/6 489/2/6 493/2/6
f 494/4/6 495/4/6 496/4/6
f 496/4/6 495/4/6 497/4/6
f 498/4/6 499/4/6 500/4/6
f 500/4/6 499/4/6 501/4/6
f 502/4/6 503/4/6 504/4/6
f 504/4/6 503/4/6 505/4/6
f 506/3/6 507/3/6 508/3/6
f 508/3/6 507/3/6 509/3/6
f 506/3/6 508/3/6 510/3/6
f 508/2/6 509/2/6 510/2/6
f 510/2/6 509/2/6 511/2/6
f 506/3/6 510/3/6 512/3/6
f 510/3/6 511/3/6 512/3/6
f 512/3/6 511/3/6 513/3/6
f 514/3/6 515/3/6 516/3/6
f 516/3/6 515/3/6 517/3/6
f 516/2/6 517/2/6 518/2/6
f 518/2/6 517/2/6 519/2/6
f 518/3/6 519/3/6 520/3/6
f 520/3/6 519/3/6 521/3/6
f 522/3/6 523/3/6 524/3/6
f 524/3/6 523/3/6 525/3/6
f 524/2/6 525/2/6 526/2/6
f 526/2/6 525/2/6 527/2/6
f 526/3/6 527/3/6 528/3/6
f 528/3/6 527/3/6 529/3/6
f 530/3/6 531/3/6 532/3/6
f 532/3/6 531/3/6 533/3/6
f 532/2/6 533/2/6 534/2/6
f 533/3/6 531/3/6 535/3/6
f 534/2/6 533/2/6 535/2/6
f 534/3/6 535/3/6 536/3/6
f 535/3/6 531/3/6 537/3/6
f 536/3/6 535/3/6 537/3/6
