# MagicaVoxel @ Ephtracy

# group
o 

# material
mtllib whiresStraight.mtl
usemtl palette

# normals
vn -1 0 0
vn 1 0 0
vn 0 0 1
vn 0 0 -1
vn 0 -1 0
vn 0 1 0

# texcoords
vt 0.595703 0.5
vt 0.626953 0.5
vt 0.658203 0.5

# verts
v -0.5 0 -0.6
v -0.5 0 -0.8
v -0.5 1.6 -0.6
v -0.5 1.6 -0.8
v -0.1 0 -0.6
v -0.1 0 -0.8
v -0.1 1.6 -0.6
v -0.1 1.6 -0.8
v 0.3 0 -0.6
v 0.3 0 -0.8
v 0.3 1.6 -0.6
v 0.3 1.6 -0.8
v -0.2 0 -0.6
v -0.2 0 -0.8
v -0.2 1.6 -0.6
v -0.2 1.6 -0.8
v 0.2 0 -0.6
v 0.2 0 -0.8
v 0.2 1.6 -0.6
v 0.2 1.6 -0.8
v 0.6 0 -0.6
v 0.6 0 -0.8
v 0.6 1.6 -0.6
v 0.6 1.6 -0.8
v -0.5 0 -0.6
v -0.5 1.6 -0.6
v -0.2 0 -0.6
v -0.2 1.6 -0.6
v -0.1 0 -0.6
v -0.1 1.6 -0.6
v 0.2 0 -0.6
v 0.2 1.6 -0.6
v 0.3 0 -0.6
v 0.3 1.6 -0.6
v 0.6 0 -0.6
v 0.6 1.6 -0.6
v -0.5 0 -0.8
v -0.5 1.6 -0.8
v -0.2 0 -0.8
v -0.2 1.6 -0.8
v -0.1 0 -0.8
v -0.1 1.6 -0.8
v 0.2 0 -0.8
v 0.2 1.6 -0.8
v 0.3 0 -0.8
v 0.3 1.6 -0.8
v 0.6 0 -0.8
v 0.6 1.6 -0.8
v -0.5 0 -0.6
v -0.2 0 -0.6
v -0.1 0 -0.6
v 0.2 0 -0.6
v 0.3 0 -0.6
v 0.6 0 -0.6
v -0.5 0 -0.8
v -0.2 0 -0.8
v -0.1 0 -0.8
v 0.2 0 -0.8
v 0.3 0 -0.8
v 0.6 0 -0.8
v -0.5 1.6 -0.6
v -0.2 1.6 -0.6
v -0.1 1.6 -0.6
v 0.2 1.6 -0.6
v 0.3 1.6 -0.6
v 0.6 1.6 -0.6
v -0.5 1.6 -0.8
v -0.2 1.6 -0.8
v -0.1 1.6 -0.8
v 0.2 1.6 -0.8
v 0.3 1.6 -0.8
v 0.6 1.6 -0.8

# faces
f 3/3/1 2/3/1 1/3/1
f 4/3/1 2/3/1 3/3/1
f 7/2/1 6/2/1 5/2/1
f 8/2/1 6/2/1 7/2/1
f 11/1/1 10/1/1 9/1/1
f 12/1/1 10/1/1 11/1/1
f 13/3/2 14/3/2 15/3/2
f 15/3/2 14/3/2 16/3/2
f 17/2/2 18/2/2 19/2/2
f 19/2/2 18/2/2 20/2/2
f 21/1/2 22/1/2 23/1/2
f 23/1/2 22/1/2 24/1/2
f 27/3/3 26/3/3 25/3/3
f 28/3/3 26/3/3 27/3/3
f 31/2/3 30/2/3 29/2/3
f 32/2/3 30/2/3 31/2/3
f 35/1/3 34/1/3 33/1/3
f 36/1/3 34/1/3 35/1/3
f 37/3/4 38/3/4 39/3/4
f 39/3/4 38/3/4 40/3/4
f 41/2/4 42/2/4 43/2/4
f 43/2/4 42/2/4 44/2/4
f 45/1/4 46/1/4 47/1/4
f 47/1/4 46/1/4 48/1/4
f 55/3/5 50/3/5 49/3/5
f 56/3/5 50/3/5 55/3/5
f 57/2/5 52/2/5 51/2/5
f 58/2/5 52/2/5 57/2/5
f 59/1/5 54/1/5 53/1/5
f 60/1/5 54/1/5 59/1/5
f 61/3/6 62/3/6 67/3/6
f 67/3/6 62/3/6 68/3/6
f 63/2/6 64/2/6 69/2/6
f 69/2/6 64/2/6 70/2/6
f 65/1/6 66/1/6 71/1/6
f 71/1/6 66/1/6 72/1/6
