# MagicaVoxel @ Ephtracy

# group
o 

# material
mtllib WhiresTurn.mtl
usemtl palette

# normals
vn -1 0 0
vn 1 0 0
vn 0 0 1
vn 0 0 -1
vn 0 -1 0
vn 0 1 0

# texcoords
vt 0.595703 0.5
vt 0.626953 0.5
vt 0.658203 0.5

# verts
v -0.5 0 -0.6
v -0.5 0 -0.8
v -0.5 1.4 -0.6
v -0.5 1.4 -0.8
v -0.1 0 -0.6
v -0.1 0 -0.8
v -0.1 1 -0.6
v -0.1 1 -0.8
v 0.3 0 -0.6
v 0.3 0 -0.8
v 0.3 0.6 -0.6
v 0.3 0.6 -0.8
v -0.2 0 -0.6
v -0.2 0 -0.8
v -0.2 1.1 -0.6
v -0.2 1.1 -0.8
v 0.2 0 -0.6
v 0.2 0 -0.8
v 0.2 0.7 -0.6
v 0.2 0.7 -0.8
v 0.6 0 -0.6
v 0.6 0 -0.8
v 0.6 0.3 -0.6
v 0.6 0.3 -0.8
v 0.8 0.3 -0.6
v 0.8 0.3 -0.8
v 0.8 0.6 -0.6
v 0.8 0.6 -0.8
v 0.8 0.7 -0.6
v 0.8 0.7 -0.8
v 0.8 1 -0.6
v 0.8 1 -0.8
v 0.8 1.1 -0.6
v 0.8 1.1 -0.8
v 0.8 1.4 -0.6
v 0.8 1.4 -0.8
v -0.5 0 -0.6
v -0.5 1.4 -0.6
v -0.2 0 -0.6
v -0.2 1.1 -0.6
v -0.1 0 -0.6
v -0.1 1 -0.6
v 0.2 0 -0.6
v 0.2 0.7 -0.6
v 0.3 0 -0.6
v 0.3 0.6 -0.6
v 0.6 0 -0.6
v 0.6 0.3 -0.6
v 0.8 0.3 -0.6
v 0.8 0.6 -0.6
v 0.8 0.7 -0.6
v 0.8 1 -0.6
v 0.8 1.1 -0.6
v 0.8 1.4 -0.6
v -0.5 0 -0.8
v -0.5 1.4 -0.8
v -0.2 0 -0.8
v -0.2 1.1 -0.8
v -0.1 0 -0.8
v -0.1 1 -0.8
v 0.2 0 -0.8
v 0.2 0.7 -0.8
v 0.3 0 -0.8
v 0.3 0.6 -0.8
v 0.6 0 -0.8
v 0.6 0.3 -0.8
v 0.8 0.3 -0.8
v 0.8 0.6 -0.8
v 0.8 0.7 -0.8
v 0.8 1 -0.8
v 0.8 1.1 -0.8
v 0.8 1.4 -0.8
v -0.5 0 -0.6
v -0.2 0 -0.6
v -0.1 0 -0.6
v 0.2 0 -0.6
v 0.3 0 -0.6
v 0.6 0 -0.6
v -0.5 0 -0.8
v -0.2 0 -0.8
v -0.1 0 -0.8
v 0.2 0 -0.8
v 0.3 0 -0.8
v 0.6 0 -0.8
v 0.6 0.3 -0.6
v 0.8 0.3 -0.6
v 0.6 0.3 -0.8
v 0.8 0.3 -0.8
v 0.2 0.7 -0.6
v 0.8 0.7 -0.6
v 0.2 0.7 -0.8
v 0.8 0.7 -0.8
v -0.2 1.1 -0.6
v 0.8 1.1 -0.6
v -0.2 1.1 -0.8
v 0.8 1.1 -0.8
v 0.3 0.6 -0.6
v 0.8 0.6 -0.6
v 0.3 0.6 -0.8
v 0.8 0.6 -0.8
v -0.1 1 -0.6
v 0.8 1 -0.6
v -0.1 1 -0.8
v 0.8 1 -0.8
v -0.5 1.4 -0.6
v 0.8 1.4 -0.6
v -0.5 1.4 -0.8
v 0.8 1.4 -0.8

# faces
f 3/3/1 2/3/1 1/3/1
f 4/3/1 2/3/1 3/3/1
f 7/2/1 6/2/1 5/2/1
f 8/2/1 6/2/1 7/2/1
f 11/1/1 10/1/1 9/1/1
f 12/1/1 10/1/1 11/1/1
f 13/3/2 14/3/2 15/3/2
f 15/3/2 14/3/2 16/3/2
f 17/2/2 18/2/2 19/2/2
f 19/2/2 18/2/2 20/2/2
f 21/1/2 22/1/2 23/1/2
f 23/1/2 22/1/2 24/1/2
f 25/1/2 26/1/2 27/1/2
f 27/1/2 26/1/2 28/1/2
f 29/2/2 30/2/2 31/2/2
f 31/2/2 30/2/2 32/2/2
f 33/3/2 34/3/2 35/3/2
f 35/3/2 34/3/2 36/3/2
f 39/3/3 38/3/3 37/3/3
f 40/3/3 38/3/3 39/3/3
f 43/2/3 42/2/3 41/2/3
f 44/2/3 42/2/3 43/2/3
f 47/1/3 46/1/3 45/1/3
f 48/1/3 46/1/3 47/1/3
f 49/1/3 46/1/3 48/1/3
f 50/1/3 46/1/3 49/1/3
f 51/2/3 42/2/3 44/2/3
f 52/2/3 42/2/3 51/2/3
f 53/3/3 38/3/3 40/3/3
f 54/3/3 38/3/3 53/3/3
f 55/3/4 56/3/4 57/3/4
f 57/3/4 56/3/4 58/3/4
f 59/2/4 60/2/4 61/2/4
f 61/2/4 60/2/4 62/2/4
f 63/1/4 64/1/4 65/1/4
f 65/1/4 64/1/4 66/1/4
f 66/1/4 64/1/4 67/1/4
f 67/1/4 64/1/4 68/1/4
f 62/2/4 60/2/4 69/2/4
f 69/2/4 60/2/4 70/2/4
f 58/3/4 56/3/4 71/3/4
f 71/3/4 56/3/4 72/3/4
f 79/3/5 74/3/5 73/3/5
f 80/3/5 74/3/5 79/3/5
f 81/2/5 76/2/5 75/2/5
f 82/2/5 76/2/5 81/2/5
f 83/1/5 78/1/5 77/1/5
f 84/1/5 78/1/5 83/1/5
f 87/1/5 86/1/5 85/1/5
f 88/1/5 86/1/5 87/1/5
f 91/2/5 90/2/5 89/2/5
f 92/2/5 90/2/5 91/2/5
f 95/3/5 94/3/5 93/3/5
f 96/3/5 94/3/5 95/3/5
f 97/1/6 98/1/6 99/1/6
f 99/1/6 98/1/6 100/1/6
f 101/2/6 102/2/6 103/2/6
f 103/2/6 102/2/6 104/2/6
f 105/3/6 106/3/6 107/3/6
f 107/3/6 106/3/6 108/3/6
